<?xml version="1.0" encoding="UTF-8" standalone="no"?>
<!DOCTYPE svg PUBLIC "-//W3C//DTD SVG 1.1//EN"
 "http://www.w3.org/Graphics/SVG/1.1/DTD/svg11.dtd">
<!-- Generated by graphviz version 2.43.0 (0)
 -->
<!-- Title: BST Pages: 1 -->
<svg width="675pt" height="1070pt"
 viewBox="0.00 0.00 674.86 1070.00" xmlns="http://www.w3.org/2000/svg" xmlns:xlink="http://www.w3.org/1999/xlink">
<g id="graph0" class="graph" transform="scale(1 1) rotate(0) translate(4 1066)">
<title>BST</title>
<polygon fill="white" stroke="transparent" points="-4,4 -4,-1066 670.86,-1066 670.86,4 -4,4"/>
<!-- 19 -->
<g id="node1" class="node">
<title>19</title>
<ellipse fill="none" stroke="black" cx="27" cy="-18" rx="27" ry="18"/>
<text text-anchor="middle" x="27" y="-14.3" font-family="Times,serif" font-size="14.00">19</text>
</g>
<!-- have 2 -->
<g id="node2" class="node">
<title>have 2</title>
<ellipse fill="none" stroke="black" cx="132.9" cy="-18" rx="34.39" ry="18"/>
<text text-anchor="middle" x="132.9" y="-14.3" font-family="Times,serif" font-size="14.00">have 2</text>
</g>
<!-- 19&#45;&gt;have 2 -->
<g id="edge1" class="edge">
<title>19&#45;&gt;have 2</title>
<path fill="none" stroke="black" d="M54.22,-18C64.43,-18 76.43,-18 87.89,-18"/>
<polygon fill="black" stroke="black" points="88.21,-21.5 98.21,-18 88.21,-14.5 88.21,-21.5"/>
</g>
<!-- 18 -->
<g id="node3" class="node">
<title>18</title>
<ellipse fill="none" stroke="black" cx="27" cy="-72" rx="27" ry="18"/>
<text text-anchor="middle" x="27" y="-68.3" font-family="Times,serif" font-size="14.00">18</text>
</g>
<!-- NULL18 -->
<g id="node4" class="node">
<title>NULL18</title>
<ellipse fill="none" stroke="black" cx="132.9" cy="-72" rx="42.79" ry="18"/>
<text text-anchor="middle" x="132.9" y="-68.3" font-family="Times,serif" font-size="14.00">NULL18</text>
</g>
<!-- 18&#45;&gt;NULL18 -->
<g id="edge2" class="edge">
<title>18&#45;&gt;NULL18</title>
<path fill="none" stroke="black" d="M54.22,-72C62.08,-72 70.99,-72 79.91,-72"/>
<polygon fill="black" stroke="black" points="79.92,-75.5 89.92,-72 79.92,-68.5 79.92,-75.5"/>
</g>
<!-- 17 -->
<g id="node5" class="node">
<title>17</title>
<ellipse fill="none" stroke="black" cx="27" cy="-126" rx="27" ry="18"/>
<text text-anchor="middle" x="27" y="-122.3" font-family="Times,serif" font-size="14.00">17</text>
</g>
<!-- classes 1 -->
<g id="node6" class="node">
<title>classes 1</title>
<ellipse fill="none" stroke="black" cx="132.9" cy="-126" rx="42.49" ry="18"/>
<text text-anchor="middle" x="132.9" y="-122.3" font-family="Times,serif" font-size="14.00">classes 1</text>
</g>
<!-- 17&#45;&gt;classes 1 -->
<g id="edge3" class="edge">
<title>17&#45;&gt;classes 1</title>
<path fill="none" stroke="black" d="M54.22,-126C62.17,-126 71.19,-126 80.21,-126"/>
<polygon fill="black" stroke="black" points="80.32,-129.5 90.32,-126 80.32,-122.5 80.32,-129.5"/>
</g>
<!-- my 2 -->
<g id="node7" class="node">
<title>my 2</title>
<ellipse fill="none" stroke="black" cx="264.44" cy="-126" rx="29.5" ry="18"/>
<text text-anchor="middle" x="264.44" y="-122.3" font-family="Times,serif" font-size="14.00">my 2</text>
</g>
<!-- classes 1&#45;&gt;my 2 -->
<g id="edge4" class="edge">
<title>classes 1&#45;&gt;my 2</title>
<path fill="none" stroke="black" d="M175.24,-126C191.12,-126 209.18,-126 224.8,-126"/>
<polygon fill="black" stroke="black" points="225.16,-129.5 235.16,-126 225.16,-122.5 225.16,-129.5"/>
</g>
<!-- me 1 -->
<g id="node8" class="node">
<title>me 1</title>
<ellipse fill="none" stroke="black" cx="401.18" cy="-126" rx="28.7" ry="18"/>
<text text-anchor="middle" x="401.18" y="-122.3" font-family="Times,serif" font-size="14.00">me 1</text>
</g>
<!-- my 2&#45;&gt;me 1 -->
<g id="edge5" class="edge">
<title>my 2&#45;&gt;me 1</title>
<path fill="none" stroke="black" d="M294.01,-126C313.93,-126 340.71,-126 362.39,-126"/>
<polygon fill="black" stroke="black" points="362.57,-129.5 372.57,-126 362.57,-122.5 362.57,-129.5"/>
</g>
<!-- 16 -->
<g id="node9" class="node">
<title>16</title>
<ellipse fill="none" stroke="black" cx="27" cy="-180" rx="27" ry="18"/>
<text text-anchor="middle" x="27" y="-176.3" font-family="Times,serif" font-size="14.00">16</text>
</g>
<!-- a 1 -->
<g id="node10" class="node">
<title>a 1</title>
<ellipse fill="none" stroke="black" cx="132.9" cy="-180" rx="27" ry="18"/>
<text text-anchor="middle" x="132.9" y="-176.3" font-family="Times,serif" font-size="14.00">a 1</text>
</g>
<!-- 16&#45;&gt;a 1 -->
<g id="edge6" class="edge">
<title>16&#45;&gt;a 1</title>
<path fill="none" stroke="black" d="M54.22,-180C66.77,-180 82,-180 95.64,-180"/>
<polygon fill="black" stroke="black" points="95.69,-183.5 105.69,-180 95.69,-176.5 95.69,-183.5"/>
</g>
<!-- 15 -->
<g id="node11" class="node">
<title>15</title>
<ellipse fill="none" stroke="black" cx="27" cy="-234" rx="27" ry="18"/>
<text text-anchor="middle" x="27" y="-230.3" font-family="Times,serif" font-size="14.00">15</text>
</g>
<!-- four 1 -->
<g id="node12" class="node">
<title>four 1</title>
<ellipse fill="none" stroke="black" cx="132.9" cy="-234" rx="32.49" ry="18"/>
<text text-anchor="middle" x="132.9" y="-230.3" font-family="Times,serif" font-size="14.00">four 1</text>
</g>
<!-- 15&#45;&gt;four 1 -->
<g id="edge7" class="edge">
<title>15&#45;&gt;four 1</title>
<path fill="none" stroke="black" d="M54.22,-234C65,-234 77.77,-234 89.81,-234"/>
<polygon fill="black" stroke="black" points="90.12,-237.5 100.12,-234 90.12,-230.5 90.12,-237.5"/>
</g>
<!-- hobby 1 -->
<g id="node13" class="node">
<title>hobby 1</title>
<ellipse fill="none" stroke="black" cx="264.44" cy="-234" rx="39.79" ry="18"/>
<text text-anchor="middle" x="264.44" y="-230.3" font-family="Times,serif" font-size="14.00">hobby 1</text>
</g>
<!-- four 1&#45;&gt;hobby 1 -->
<g id="edge8" class="edge">
<title>four 1&#45;&gt;hobby 1</title>
<path fill="none" stroke="black" d="M165.59,-234C180.21,-234 197.91,-234 214.21,-234"/>
<polygon fill="black" stroke="black" points="214.68,-237.5 224.68,-234 214.68,-230.5 214.68,-237.5"/>
</g>
<!-- what 1 -->
<g id="node14" class="node">
<title>what 1</title>
<ellipse fill="none" stroke="black" cx="401.18" cy="-234" rx="34.39" ry="18"/>
<text text-anchor="middle" x="401.18" y="-230.3" font-family="Times,serif" font-size="14.00">what 1</text>
</g>
<!-- hobby 1&#45;&gt;what 1 -->
<g id="edge9" class="edge">
<title>hobby 1&#45;&gt;what 1</title>
<path fill="none" stroke="black" d="M304.41,-234C320.63,-234 339.54,-234 356.25,-234"/>
<polygon fill="black" stroke="black" points="356.32,-237.5 366.32,-234 356.32,-230.5 356.32,-237.5"/>
</g>
<!-- 14 -->
<g id="node15" class="node">
<title>14</title>
<ellipse fill="none" stroke="black" cx="27" cy="-288" rx="27" ry="18"/>
<text text-anchor="middle" x="27" y="-284.3" font-family="Times,serif" font-size="14.00">14</text>
</g>
<!-- do 1 -->
<g id="node16" class="node">
<title>do 1</title>
<ellipse fill="none" stroke="black" cx="132.9" cy="-288" rx="27" ry="18"/>
<text text-anchor="middle" x="132.9" y="-284.3" font-family="Times,serif" font-size="14.00">do 1</text>
</g>
<!-- 14&#45;&gt;do 1 -->
<g id="edge10" class="edge">
<title>14&#45;&gt;do 1</title>
<path fill="none" stroke="black" d="M54.22,-288C66.77,-288 82,-288 95.64,-288"/>
<polygon fill="black" stroke="black" points="95.69,-291.5 105.69,-288 95.69,-284.5 95.69,-291.5"/>
</g>
<!-- time 1 -->
<g id="node17" class="node">
<title>time 1</title>
<ellipse fill="none" stroke="black" cx="264.44" cy="-288" rx="33.6" ry="18"/>
<text text-anchor="middle" x="264.44" y="-284.3" font-family="Times,serif" font-size="14.00">time 1</text>
</g>
<!-- do 1&#45;&gt;time 1 -->
<g id="edge11" class="edge">
<title>do 1&#45;&gt;time 1</title>
<path fill="none" stroke="black" d="M160.11,-288C177.36,-288 200.35,-288 220.26,-288"/>
<polygon fill="black" stroke="black" points="220.35,-291.5 230.35,-288 220.35,-284.5 220.35,-291.5"/>
</g>
<!-- cooks 1 -->
<g id="node18" class="node">
<title>cooks 1</title>
<ellipse fill="none" stroke="black" cx="401.18" cy="-288" rx="38.19" ry="18"/>
<text text-anchor="middle" x="401.18" y="-284.3" font-family="Times,serif" font-size="14.00">cooks 1</text>
</g>
<!-- time 1&#45;&gt;cooks 1 -->
<g id="edge12" class="edge">
<title>time 1&#45;&gt;cooks 1</title>
<path fill="none" stroke="black" d="M298.4,-288C314.76,-288 334.81,-288 352.79,-288"/>
<polygon fill="black" stroke="black" points="352.8,-291.5 362.8,-288 352.8,-284.5 352.8,-291.5"/>
</g>
<!-- 13 -->
<g id="node19" class="node">
<title>13</title>
<ellipse fill="none" stroke="black" cx="27" cy="-342" rx="27" ry="18"/>
<text text-anchor="middle" x="27" y="-338.3" font-family="Times,serif" font-size="14.00">13</text>
</g>
<!-- My 1 -->
<g id="node20" class="node">
<title>My 1</title>
<ellipse fill="none" stroke="black" cx="132.9" cy="-342" rx="30.59" ry="18"/>
<text text-anchor="middle" x="132.9" y="-338.3" font-family="Times,serif" font-size="14.00">My 1</text>
</g>
<!-- 13&#45;&gt;My 1 -->
<g id="edge13" class="edge">
<title>13&#45;&gt;My 1</title>
<path fill="none" stroke="black" d="M54.22,-342C65.58,-342 79.15,-342 91.74,-342"/>
<polygon fill="black" stroke="black" points="92.01,-345.5 102.01,-342 92.01,-338.5 92.01,-345.5"/>
</g>
<!-- university 1 -->
<g id="node21" class="node">
<title>university 1</title>
<ellipse fill="none" stroke="black" cx="264.44" cy="-342" rx="52.79" ry="18"/>
<text text-anchor="middle" x="264.44" y="-338.3" font-family="Times,serif" font-size="14.00">university 1</text>
</g>
<!-- My 1&#45;&gt;university 1 -->
<g id="edge14" class="edge">
<title>My 1&#45;&gt;university 1</title>
<path fill="none" stroke="black" d="M163.62,-342C174.98,-342 188.42,-342 201.68,-342"/>
<polygon fill="black" stroke="black" points="201.75,-345.5 211.75,-342 201.75,-338.5 201.75,-345.5"/>
</g>
<!-- 12 -->
<g id="node22" class="node">
<title>12</title>
<ellipse fill="none" stroke="black" cx="27" cy="-396" rx="27" ry="18"/>
<text text-anchor="middle" x="27" y="-392.3" font-family="Times,serif" font-size="14.00">12</text>
</g>
<!-- I 4 -->
<g id="node23" class="node">
<title>I 4</title>
<ellipse fill="none" stroke="black" cx="132.9" cy="-396" rx="27" ry="18"/>
<text text-anchor="middle" x="132.9" y="-392.3" font-family="Times,serif" font-size="14.00">I 4</text>
</g>
<!-- 12&#45;&gt;I 4 -->
<g id="edge15" class="edge">
<title>12&#45;&gt;I 4</title>
<path fill="none" stroke="black" d="M54.22,-396C66.77,-396 82,-396 95.64,-396"/>
<polygon fill="black" stroke="black" points="95.69,-399.5 105.69,-396 95.69,-392.5 95.69,-399.5"/>
</g>
<!-- 11 -->
<g id="node24" class="node">
<title>11</title>
<ellipse fill="none" stroke="black" cx="27" cy="-450" rx="27" ry="18"/>
<text text-anchor="middle" x="27" y="-446.3" font-family="Times,serif" font-size="14.00">11</text>
</g>
<!-- three 1 -->
<g id="node25" class="node">
<title>three 1</title>
<ellipse fill="none" stroke="black" cx="132.9" cy="-450" rx="35.19" ry="18"/>
<text text-anchor="middle" x="132.9" y="-446.3" font-family="Times,serif" font-size="14.00">three 1</text>
</g>
<!-- 11&#45;&gt;three 1 -->
<g id="edge16" class="edge">
<title>11&#45;&gt;three 1</title>
<path fill="none" stroke="black" d="M54.22,-450C64.25,-450 76,-450 87.27,-450"/>
<polygon fill="black" stroke="black" points="87.44,-453.5 97.44,-450 87.44,-446.5 87.44,-453.5"/>
</g>
<!-- 10 -->
<g id="node26" class="node">
<title>10</title>
<ellipse fill="none" stroke="black" cx="27" cy="-504" rx="27" ry="18"/>
<text text-anchor="middle" x="27" y="-500.3" font-family="Times,serif" font-size="14.00">10</text>
</g>
<!-- student 2 -->
<g id="node27" class="node">
<title>student 2</title>
<ellipse fill="none" stroke="black" cx="132.9" cy="-504" rx="42.79" ry="18"/>
<text text-anchor="middle" x="132.9" y="-500.3" font-family="Times,serif" font-size="14.00">student 2</text>
</g>
<!-- 10&#45;&gt;student 2 -->
<g id="edge17" class="edge">
<title>10&#45;&gt;student 2</title>
<path fill="none" stroke="black" d="M54.22,-504C62.08,-504 70.99,-504 79.91,-504"/>
<polygon fill="black" stroke="black" points="79.92,-507.5 89.92,-504 79.92,-500.5 79.92,-507.5"/>
</g>
<!-- Every 1 -->
<g id="node28" class="node">
<title>Every 1</title>
<ellipse fill="none" stroke="black" cx="264.44" cy="-504" rx="38.19" ry="18"/>
<text text-anchor="middle" x="264.44" y="-500.3" font-family="Times,serif" font-size="14.00">Every 1</text>
</g>
<!-- student 2&#45;&gt;Every 1 -->
<g id="edge18" class="edge">
<title>student 2&#45;&gt;Every 1</title>
<path fill="none" stroke="black" d="M175.95,-504C188.66,-504 202.71,-504 215.75,-504"/>
<polygon fill="black" stroke="black" points="215.96,-507.5 225.96,-504 215.96,-500.5 215.96,-507.5"/>
</g>
<!-- for 2 -->
<g id="node29" class="node">
<title>for 2</title>
<ellipse fill="none" stroke="black" cx="401.18" cy="-504" rx="27.9" ry="18"/>
<text text-anchor="middle" x="401.18" y="-500.3" font-family="Times,serif" font-size="14.00">for 2</text>
</g>
<!-- Every 1&#45;&gt;for 2 -->
<g id="edge19" class="edge">
<title>Every 1&#45;&gt;for 2</title>
<path fill="none" stroke="black" d="M302.97,-504C321.67,-504 344.22,-504 362.89,-504"/>
<polygon fill="black" stroke="black" points="363.1,-507.5 373.1,-504 363.1,-500.5 363.1,-507.5"/>
</g>
<!-- 9 -->
<g id="node30" class="node">
<title>9</title>
<ellipse fill="none" stroke="black" cx="27" cy="-558" rx="27" ry="18"/>
<text text-anchor="middle" x="27" y="-554.3" font-family="Times,serif" font-size="14.00">9</text>
</g>
<!-- so 1 -->
<g id="node31" class="node">
<title>so 1</title>
<ellipse fill="none" stroke="black" cx="132.9" cy="-558" rx="27" ry="18"/>
<text text-anchor="middle" x="132.9" y="-554.3" font-family="Times,serif" font-size="14.00">so 1</text>
</g>
<!-- 9&#45;&gt;so 1 -->
<g id="edge20" class="edge">
<title>9&#45;&gt;so 1</title>
<path fill="none" stroke="black" d="M54.22,-558C66.77,-558 82,-558 95.64,-558"/>
<polygon fill="black" stroke="black" points="95.69,-561.5 105.69,-558 95.69,-554.5 95.69,-561.5"/>
</g>
<!-- 8 -->
<g id="node32" class="node">
<title>8</title>
<ellipse fill="none" stroke="black" cx="27" cy="-612" rx="27" ry="18"/>
<text text-anchor="middle" x="27" y="-608.3" font-family="Times,serif" font-size="14.00">8</text>
</g>
<!-- NULL8 -->
<g id="node33" class="node">
<title>NULL8</title>
<ellipse fill="none" stroke="black" cx="132.9" cy="-612" rx="38.19" ry="18"/>
<text text-anchor="middle" x="132.9" y="-608.3" font-family="Times,serif" font-size="14.00">NULL8</text>
</g>
<!-- 8&#45;&gt;NULL8 -->
<g id="edge21" class="edge">
<title>8&#45;&gt;NULL8</title>
<path fill="none" stroke="black" d="M54.22,-612C63.32,-612 73.84,-612 84.14,-612"/>
<polygon fill="black" stroke="black" points="84.3,-615.5 94.3,-612 84.3,-608.5 84.3,-615.5"/>
</g>
<!-- 7 -->
<g id="node34" class="node">
<title>7</title>
<ellipse fill="none" stroke="black" cx="27" cy="-666" rx="27" ry="18"/>
<text text-anchor="middle" x="27" y="-662.3" font-family="Times,serif" font-size="14.00">7</text>
</g>
<!-- NULL7 -->
<g id="node35" class="node">
<title>NULL7</title>
<ellipse fill="none" stroke="black" cx="132.9" cy="-666" rx="38.19" ry="18"/>
<text text-anchor="middle" x="132.9" y="-662.3" font-family="Times,serif" font-size="14.00">NULL7</text>
</g>
<!-- 7&#45;&gt;NULL7 -->
<g id="edge22" class="edge">
<title>7&#45;&gt;NULL7</title>
<path fill="none" stroke="black" d="M54.22,-666C63.32,-666 73.84,-666 84.14,-666"/>
<polygon fill="black" stroke="black" points="84.3,-669.5 94.3,-666 84.3,-662.5 84.3,-669.5"/>
</g>
<!-- 6 -->
<g id="node36" class="node">
<title>6</title>
<ellipse fill="none" stroke="black" cx="27" cy="-720" rx="27" ry="18"/>
<text text-anchor="middle" x="27" y="-716.3" font-family="Times,serif" font-size="14.00">6</text>
</g>
<!-- usually 2 -->
<g id="node37" class="node">
<title>usually 2</title>
<ellipse fill="none" stroke="black" cx="132.9" cy="-720" rx="42.79" ry="18"/>
<text text-anchor="middle" x="132.9" y="-716.3" font-family="Times,serif" font-size="14.00">usually 2</text>
</g>
<!-- 6&#45;&gt;usually 2 -->
<g id="edge23" class="edge">
<title>6&#45;&gt;usually 2</title>
<path fill="none" stroke="black" d="M54.22,-720C62.08,-720 70.99,-720 79.91,-720"/>
<polygon fill="black" stroke="black" points="79.92,-723.5 89.92,-720 79.92,-716.5 79.92,-723.5"/>
</g>
<!-- to 1 -->
<g id="node38" class="node">
<title>to 1</title>
<ellipse fill="none" stroke="black" cx="264.44" cy="-720" rx="27" ry="18"/>
<text text-anchor="middle" x="264.44" y="-716.3" font-family="Times,serif" font-size="14.00">to 1</text>
</g>
<!-- usually 2&#45;&gt;to 1 -->
<g id="edge24" class="edge">
<title>usually 2&#45;&gt;to 1</title>
<path fill="none" stroke="black" d="M175.95,-720C192.56,-720 211.45,-720 227.41,-720"/>
<polygon fill="black" stroke="black" points="227.42,-723.5 237.42,-720 227.42,-716.5 227.42,-723.5"/>
</g>
<!-- 5 -->
<g id="node39" class="node">
<title>5</title>
<ellipse fill="none" stroke="black" cx="27" cy="-774" rx="27" ry="18"/>
<text text-anchor="middle" x="27" y="-770.3" font-family="Times,serif" font-size="14.00">5</text>
</g>
<!-- meals 1 -->
<g id="node40" class="node">
<title>meals 1</title>
<ellipse fill="none" stroke="black" cx="132.9" cy="-774" rx="38.19" ry="18"/>
<text text-anchor="middle" x="132.9" y="-770.3" font-family="Times,serif" font-size="14.00">meals 1</text>
</g>
<!-- 5&#45;&gt;meals 1 -->
<g id="edge25" class="edge">
<title>5&#45;&gt;meals 1</title>
<path fill="none" stroke="black" d="M54.22,-774C63.32,-774 73.84,-774 84.14,-774"/>
<polygon fill="black" stroke="black" points="84.3,-777.5 94.3,-774 84.3,-770.5 84.3,-777.5"/>
</g>
<!-- eat 1 -->
<g id="node41" class="node">
<title>eat 1</title>
<ellipse fill="none" stroke="black" cx="264.44" cy="-774" rx="27.9" ry="18"/>
<text text-anchor="middle" x="264.44" y="-770.3" font-family="Times,serif" font-size="14.00">eat 1</text>
</g>
<!-- meals 1&#45;&gt;eat 1 -->
<g id="edge26" class="edge">
<title>meals 1&#45;&gt;eat 1</title>
<path fill="none" stroke="black" d="M171.36,-774C188.57,-774 208.92,-774 226.1,-774"/>
<polygon fill="black" stroke="black" points="226.34,-777.5 236.34,-774 226.34,-770.5 226.34,-777.5"/>
</g>
<!-- go 1 -->
<g id="node42" class="node">
<title>go 1</title>
<ellipse fill="none" stroke="black" cx="401.18" cy="-774" rx="27" ry="18"/>
<text text-anchor="middle" x="401.18" y="-770.3" font-family="Times,serif" font-size="14.00">go 1</text>
</g>
<!-- eat 1&#45;&gt;go 1 -->
<g id="edge27" class="edge">
<title>eat 1&#45;&gt;go 1</title>
<path fill="none" stroke="black" d="M292.7,-774C313.15,-774 341.35,-774 363.73,-774"/>
<polygon fill="black" stroke="black" points="363.87,-777.5 373.87,-774 363.87,-770.5 363.87,-777.5"/>
</g>
<!-- canteen 1 -->
<g id="node43" class="node">
<title>canteen 1</title>
<ellipse fill="none" stroke="black" cx="529.47" cy="-774" rx="44.39" ry="18"/>
<text text-anchor="middle" x="529.47" y="-770.3" font-family="Times,serif" font-size="14.00">canteen 1</text>
</g>
<!-- go 1&#45;&gt;canteen 1 -->
<g id="edge28" class="edge">
<title>go 1&#45;&gt;canteen 1</title>
<path fill="none" stroke="black" d="M428.35,-774C441.74,-774 458.56,-774 474.57,-774"/>
<polygon fill="black" stroke="black" points="474.93,-777.5 484.93,-774 474.93,-770.5 474.93,-777.5"/>
</g>
<!-- 4 -->
<g id="node44" class="node">
<title>4</title>
<ellipse fill="none" stroke="black" cx="27" cy="-828" rx="27" ry="18"/>
<text text-anchor="middle" x="27" y="-824.3" font-family="Times,serif" font-size="14.00">4</text>
</g>
<!-- name 1 -->
<g id="node45" class="node">
<title>name 1</title>
<ellipse fill="none" stroke="black" cx="132.9" cy="-828" rx="37.09" ry="18"/>
<text text-anchor="middle" x="132.9" y="-824.3" font-family="Times,serif" font-size="14.00">name 1</text>
</g>
<!-- 4&#45;&gt;name 1 -->
<g id="edge29" class="edge">
<title>4&#45;&gt;name 1</title>
<path fill="none" stroke="black" d="M54.22,-828C63.69,-828 74.7,-828 85.39,-828"/>
<polygon fill="black" stroke="black" points="85.49,-831.5 95.49,-828 85.49,-824.5 85.49,-831.5"/>
</g>
<!-- or 2 -->
<g id="node46" class="node">
<title>or 2</title>
<ellipse fill="none" stroke="black" cx="264.44" cy="-828" rx="27" ry="18"/>
<text text-anchor="middle" x="264.44" y="-824.3" font-family="Times,serif" font-size="14.00">or 2</text>
</g>
<!-- name 1&#45;&gt;or 2 -->
<g id="edge30" class="edge">
<title>name 1&#45;&gt;or 2</title>
<path fill="none" stroke="black" d="M169.98,-828C187.88,-828 209.44,-828 227.34,-828"/>
<polygon fill="black" stroke="black" points="227.4,-831.5 237.4,-828 227.4,-824.5 227.4,-831.5"/>
</g>
<!-- not 2 -->
<g id="node47" class="node">
<title>not 2</title>
<ellipse fill="none" stroke="black" cx="401.18" cy="-828" rx="28.7" ry="18"/>
<text text-anchor="middle" x="401.18" y="-824.3" font-family="Times,serif" font-size="14.00">not 2</text>
</g>
<!-- or 2&#45;&gt;not 2 -->
<g id="edge31" class="edge">
<title>or 2&#45;&gt;not 2</title>
<path fill="none" stroke="black" d="M291.74,-828C311.84,-828 339.82,-828 362.33,-828"/>
<polygon fill="black" stroke="black" points="362.56,-831.5 372.56,-828 362.56,-824.5 362.56,-831.5"/>
</g>
<!-- much 1 -->
<g id="node48" class="node">
<title>much 1</title>
<ellipse fill="none" stroke="black" cx="529.47" cy="-828" rx="37.89" ry="18"/>
<text text-anchor="middle" x="529.47" y="-824.3" font-family="Times,serif" font-size="14.00">much 1</text>
</g>
<!-- not 2&#45;&gt;much 1 -->
<g id="edge32" class="edge">
<title>not 2&#45;&gt;much 1</title>
<path fill="none" stroke="black" d="M429.89,-828C445.07,-828 464.28,-828 481.7,-828"/>
<polygon fill="black" stroke="black" points="481.71,-831.5 491.71,-828 481.71,-824.5 481.71,-831.5"/>
</g>
<!-- the 1 -->
<g id="node49" class="node">
<title>the 1</title>
<ellipse fill="none" stroke="black" cx="638.26" cy="-828" rx="28.7" ry="18"/>
<text text-anchor="middle" x="638.26" y="-824.3" font-family="Times,serif" font-size="14.00">the 1</text>
</g>
<!-- much 1&#45;&gt;the 1 -->
<g id="edge33" class="edge">
<title>much 1&#45;&gt;the 1</title>
<path fill="none" stroke="black" d="M567.22,-828C577.63,-828 588.98,-828 599.45,-828"/>
<polygon fill="black" stroke="black" points="599.56,-831.5 609.56,-828 599.56,-824.5 599.56,-831.5"/>
</g>
<!-- 3 -->
<g id="node50" class="node">
<title>3</title>
<ellipse fill="none" stroke="black" cx="27" cy="-882" rx="27" ry="18"/>
<text text-anchor="middle" x="27" y="-878.3" font-family="Times,serif" font-size="14.00">3</text>
</g>
<!-- is 2 -->
<g id="node51" class="node">
<title>is 2</title>
<ellipse fill="none" stroke="black" cx="132.9" cy="-882" rx="27" ry="18"/>
<text text-anchor="middle" x="132.9" y="-878.3" font-family="Times,serif" font-size="14.00">is 2</text>
</g>
<!-- 3&#45;&gt;is 2 -->
<g id="edge34" class="edge">
<title>3&#45;&gt;is 2</title>
<path fill="none" stroke="black" d="M54.22,-882C66.77,-882 82,-882 95.64,-882"/>
<polygon fill="black" stroke="black" points="95.69,-885.5 105.69,-882 95.69,-878.5 95.69,-885.5"/>
</g>
<!-- 2 -->
<g id="node52" class="node">
<title>2</title>
<ellipse fill="none" stroke="black" cx="27" cy="-936" rx="27" ry="18"/>
<text text-anchor="middle" x="27" y="-932.3" font-family="Times,serif" font-size="14.00">2</text>
</g>
<!-- Sergey 1 -->
<g id="node53" class="node">
<title>Sergey 1</title>
<ellipse fill="none" stroke="black" cx="132.9" cy="-936" rx="42.49" ry="18"/>
<text text-anchor="middle" x="132.9" y="-932.3" font-family="Times,serif" font-size="14.00">Sergey 1</text>
</g>
<!-- 2&#45;&gt;Sergey 1 -->
<g id="edge35" class="edge">
<title>2&#45;&gt;Sergey 1</title>
<path fill="none" stroke="black" d="M54.22,-936C62.17,-936 71.19,-936 80.21,-936"/>
<polygon fill="black" stroke="black" points="80.32,-939.5 90.32,-936 80.32,-932.5 80.32,-939.5"/>
</g>
<!-- mother 1 -->
<g id="node54" class="node">
<title>mother 1</title>
<ellipse fill="none" stroke="black" cx="264.44" cy="-936" rx="42.79" ry="18"/>
<text text-anchor="middle" x="264.44" y="-932.3" font-family="Times,serif" font-size="14.00">mother 1</text>
</g>
<!-- Sergey 1&#45;&gt;mother 1 -->
<g id="edge36" class="edge">
<title>Sergey 1&#45;&gt;mother 1</title>
<path fill="none" stroke="black" d="M175.24,-936C186.58,-936 199.03,-936 210.9,-936"/>
<polygon fill="black" stroke="black" points="211.15,-939.5 221.15,-936 211.15,-932.5 211.15,-939.5"/>
</g>
<!-- 1 -->
<g id="node55" class="node">
<title>1</title>
<ellipse fill="none" stroke="black" cx="27" cy="-990" rx="27" ry="18"/>
<text text-anchor="middle" x="27" y="-986.3" font-family="Times,serif" font-size="14.00">1</text>
</g>
<!-- am 1 -->
<g id="node56" class="node">
<title>am 1</title>
<ellipse fill="none" stroke="black" cx="132.9" cy="-990" rx="28.7" ry="18"/>
<text text-anchor="middle" x="132.9" y="-986.3" font-family="Times,serif" font-size="14.00">am 1</text>
</g>
<!-- 1&#45;&gt;am 1 -->
<g id="edge37" class="edge">
<title>1&#45;&gt;am 1</title>
<path fill="none" stroke="black" d="M54.22,-990C66.27,-990 80.78,-990 93.99,-990"/>
<polygon fill="black" stroke="black" points="94.23,-993.5 104.23,-990 94.23,-986.5 94.23,-993.5"/>
</g>
<!-- day 1 -->
<g id="node57" class="node">
<title>day 1</title>
<ellipse fill="none" stroke="black" cx="264.44" cy="-990" rx="30.59" ry="18"/>
<text text-anchor="middle" x="264.44" y="-986.3" font-family="Times,serif" font-size="14.00">day 1</text>
</g>
<!-- am 1&#45;&gt;day 1 -->
<g id="edge38" class="edge">
<title>am 1&#45;&gt;day 1</title>
<path fill="none" stroke="black" d="M161.69,-990C179.67,-990 203.36,-990 223.36,-990"/>
<polygon fill="black" stroke="black" points="223.44,-993.5 233.44,-990 223.44,-986.5 223.44,-993.5"/>
</g>
<!-- Cooking 1 -->
<g id="node58" class="node">
<title>Cooking 1</title>
<ellipse fill="none" stroke="black" cx="401.18" cy="-990" rx="48.19" ry="18"/>
<text text-anchor="middle" x="401.18" y="-986.3" font-family="Times,serif" font-size="14.00">Cooking 1</text>
</g>
<!-- day 1&#45;&gt;Cooking 1 -->
<g id="edge39" class="edge">
<title>day 1&#45;&gt;Cooking 1</title>
<path fill="none" stroke="black" d="M295.01,-990C309.06,-990 326.35,-990 342.82,-990"/>
<polygon fill="black" stroke="black" points="342.94,-993.5 352.94,-990 342.94,-986.5 342.94,-993.5"/>
</g>
<!-- 0 -->
<g id="node59" class="node">
<title>0</title>
<ellipse fill="none" stroke="black" cx="27" cy="-1044" rx="27" ry="18"/>
<text text-anchor="middle" x="27" y="-1040.3" font-family="Times,serif" font-size="14.00">0</text>
</g>
<!-- NULL0 -->
<g id="node60" class="node">
<title>NULL0</title>
<ellipse fill="none" stroke="black" cx="132.9" cy="-1044" rx="38.19" ry="18"/>
<text text-anchor="middle" x="132.9" y="-1040.3" font-family="Times,serif" font-size="14.00">NULL0</text>
</g>
<!-- 0&#45;&gt;NULL0 -->
<g id="edge40" class="edge">
<title>0&#45;&gt;NULL0</title>
<path fill="none" stroke="black" d="M54.22,-1044C63.32,-1044 73.84,-1044 84.14,-1044"/>
<polygon fill="black" stroke="black" points="84.3,-1047.5 94.3,-1044 84.3,-1040.5 84.3,-1047.5"/>
</g>
</g>
</svg>
