<?xml version="1.0" encoding="UTF-8" standalone="no"?>
<!DOCTYPE svg PUBLIC "-//W3C//DTD SVG 1.1//EN"
 "http://www.w3.org/Graphics/SVG/1.1/DTD/svg11.dtd">
<!-- Generated by graphviz version 2.43.0 (0)
 -->
<!-- Title: BST Pages: 1 -->
<svg width="449pt" height="2852pt"
 viewBox="0.00 0.00 449.48 2852.00" xmlns="http://www.w3.org/2000/svg" xmlns:xlink="http://www.w3.org/1999/xlink">
<g id="graph0" class="graph" transform="scale(1 1) rotate(0) translate(4 2848)">
<title>BST</title>
<polygon fill="white" stroke="transparent" points="-4,4 -4,-2848 445.48,-2848 445.48,4 -4,4"/>
<!-- 52 -->
<g id="node1" class="node">
<title>52</title>
<ellipse fill="none" stroke="black" cx="27" cy="-18" rx="27" ry="18"/>
<text text-anchor="middle" x="27" y="-14.3" font-family="Times,serif" font-size="14.00">52</text>
</g>
<!-- name 1 -->
<g id="node2" class="node">
<title>name 1</title>
<ellipse fill="none" stroke="black" cx="142.65" cy="-18" rx="37.09" ry="18"/>
<text text-anchor="middle" x="142.65" y="-14.3" font-family="Times,serif" font-size="14.00">name 1</text>
</g>
<!-- 52&#45;&gt;name 1 -->
<g id="edge1" class="edge">
<title>52&#45;&gt;name 1</title>
<path fill="none" stroke="black" d="M54.07,-18C66.31,-18 81.26,-18 95.33,-18"/>
<polygon fill="black" stroke="black" points="95.36,-21.5 105.36,-18 95.36,-14.5 95.36,-21.5"/>
</g>
<!-- canteen 1 -->
<g id="node3" class="node">
<title>canteen 1</title>
<ellipse fill="none" stroke="black" cx="275.49" cy="-18" rx="44.39" ry="18"/>
<text text-anchor="middle" x="275.49" y="-14.3" font-family="Times,serif" font-size="14.00">canteen 1</text>
</g>
<!-- name 1&#45;&gt;canteen 1 -->
<g id="edge2" class="edge">
<title>name 1&#45;&gt;canteen 1</title>
<path fill="none" stroke="black" d="M179.74,-18C192.4,-18 206.91,-18 220.7,-18"/>
<polygon fill="black" stroke="black" points="221.06,-21.5 231.06,-18 221.06,-14.5 221.06,-21.5"/>
</g>
<!-- 51 -->
<g id="node4" class="node">
<title>51</title>
<ellipse fill="none" stroke="black" cx="27" cy="-72" rx="27" ry="18"/>
<text text-anchor="middle" x="27" y="-68.3" font-family="Times,serif" font-size="14.00">51</text>
</g>
<!-- cooks 1 -->
<g id="node5" class="node">
<title>cooks 1</title>
<ellipse fill="none" stroke="black" cx="142.65" cy="-72" rx="38.19" ry="18"/>
<text text-anchor="middle" x="142.65" y="-68.3" font-family="Times,serif" font-size="14.00">cooks 1</text>
</g>
<!-- 51&#45;&gt;cooks 1 -->
<g id="edge3" class="edge">
<title>51&#45;&gt;cooks 1</title>
<path fill="none" stroke="black" d="M54.07,-72C65.87,-72 80.21,-72 93.83,-72"/>
<polygon fill="black" stroke="black" points="94.06,-75.5 104.06,-72 94.06,-68.5 94.06,-75.5"/>
</g>
<!-- 50 -->
<g id="node6" class="node">
<title>50</title>
<ellipse fill="none" stroke="black" cx="27" cy="-126" rx="27" ry="18"/>
<text text-anchor="middle" x="27" y="-122.3" font-family="Times,serif" font-size="14.00">50</text>
</g>
<!-- NULL50 -->
<g id="node7" class="node">
<title>NULL50</title>
<ellipse fill="none" stroke="black" cx="142.65" cy="-126" rx="42.79" ry="18"/>
<text text-anchor="middle" x="142.65" y="-122.3" font-family="Times,serif" font-size="14.00">NULL50</text>
</g>
<!-- 50&#45;&gt;NULL50 -->
<g id="edge4" class="edge">
<title>50&#45;&gt;NULL50</title>
<path fill="none" stroke="black" d="M54.07,-126C64.62,-126 77.19,-126 89.47,-126"/>
<polygon fill="black" stroke="black" points="89.66,-129.5 99.66,-126 89.66,-122.5 89.66,-129.5"/>
</g>
<!-- 49 -->
<g id="node8" class="node">
<title>49</title>
<ellipse fill="none" stroke="black" cx="27" cy="-180" rx="27" ry="18"/>
<text text-anchor="middle" x="27" y="-176.3" font-family="Times,serif" font-size="14.00">49</text>
</g>
<!-- My 1 -->
<g id="node9" class="node">
<title>My 1</title>
<ellipse fill="none" stroke="black" cx="142.65" cy="-180" rx="30.59" ry="18"/>
<text text-anchor="middle" x="142.65" y="-176.3" font-family="Times,serif" font-size="14.00">My 1</text>
</g>
<!-- 49&#45;&gt;My 1 -->
<g id="edge5" class="edge">
<title>49&#45;&gt;My 1</title>
<path fill="none" stroke="black" d="M54.07,-180C68.26,-180 86.12,-180 102,-180"/>
<polygon fill="black" stroke="black" points="102.09,-183.5 112.09,-180 102.09,-176.5 102.09,-183.5"/>
</g>
<!-- 48 -->
<g id="node10" class="node">
<title>48</title>
<ellipse fill="none" stroke="black" cx="27" cy="-234" rx="27" ry="18"/>
<text text-anchor="middle" x="27" y="-230.3" font-family="Times,serif" font-size="14.00">48</text>
</g>
<!-- NULL48 -->
<g id="node11" class="node">
<title>NULL48</title>
<ellipse fill="none" stroke="black" cx="142.65" cy="-234" rx="42.79" ry="18"/>
<text text-anchor="middle" x="142.65" y="-230.3" font-family="Times,serif" font-size="14.00">NULL48</text>
</g>
<!-- 48&#45;&gt;NULL48 -->
<g id="edge6" class="edge">
<title>48&#45;&gt;NULL48</title>
<path fill="none" stroke="black" d="M54.07,-234C64.62,-234 77.19,-234 89.47,-234"/>
<polygon fill="black" stroke="black" points="89.66,-237.5 99.66,-234 89.66,-230.5 89.66,-237.5"/>
</g>
<!-- 47 -->
<g id="node12" class="node">
<title>47</title>
<ellipse fill="none" stroke="black" cx="27" cy="-288" rx="27" ry="18"/>
<text text-anchor="middle" x="27" y="-284.3" font-family="Times,serif" font-size="14.00">47</text>
</g>
<!-- to 1 -->
<g id="node13" class="node">
<title>to 1</title>
<ellipse fill="none" stroke="black" cx="142.65" cy="-288" rx="27" ry="18"/>
<text text-anchor="middle" x="142.65" y="-284.3" font-family="Times,serif" font-size="14.00">to 1</text>
</g>
<!-- 47&#45;&gt;to 1 -->
<g id="edge7" class="edge">
<title>47&#45;&gt;to 1</title>
<path fill="none" stroke="black" d="M54.07,-288C69.12,-288 88.3,-288 104.86,-288"/>
<polygon fill="black" stroke="black" points="105.3,-291.5 115.3,-288 105.3,-284.5 105.3,-291.5"/>
</g>
<!-- 46 -->
<g id="node14" class="node">
<title>46</title>
<ellipse fill="none" stroke="black" cx="27" cy="-342" rx="27" ry="18"/>
<text text-anchor="middle" x="27" y="-338.3" font-family="Times,serif" font-size="14.00">46</text>
</g>
<!-- classes 1 -->
<g id="node15" class="node">
<title>classes 1</title>
<ellipse fill="none" stroke="black" cx="142.65" cy="-342" rx="42.49" ry="18"/>
<text text-anchor="middle" x="142.65" y="-338.3" font-family="Times,serif" font-size="14.00">classes 1</text>
</g>
<!-- 46&#45;&gt;classes 1 -->
<g id="edge8" class="edge">
<title>46&#45;&gt;classes 1</title>
<path fill="none" stroke="black" d="M54.07,-342C64.72,-342 77.43,-342 89.82,-342"/>
<polygon fill="black" stroke="black" points="90.1,-345.5 100.1,-342 90.1,-338.5 90.1,-345.5"/>
</g>
<!-- 45 -->
<g id="node16" class="node">
<title>45</title>
<ellipse fill="none" stroke="black" cx="27" cy="-396" rx="27" ry="18"/>
<text text-anchor="middle" x="27" y="-392.3" font-family="Times,serif" font-size="14.00">45</text>
</g>
<!-- day 1 -->
<g id="node17" class="node">
<title>day 1</title>
<ellipse fill="none" stroke="black" cx="142.65" cy="-396" rx="30.59" ry="18"/>
<text text-anchor="middle" x="142.65" y="-392.3" font-family="Times,serif" font-size="14.00">day 1</text>
</g>
<!-- 45&#45;&gt;day 1 -->
<g id="edge9" class="edge">
<title>45&#45;&gt;day 1</title>
<path fill="none" stroke="black" d="M54.07,-396C68.26,-396 86.12,-396 102,-396"/>
<polygon fill="black" stroke="black" points="102.09,-399.5 112.09,-396 102.09,-392.5 102.09,-399.5"/>
</g>
<!-- not 2 -->
<g id="node18" class="node">
<title>not 2</title>
<ellipse fill="none" stroke="black" cx="275.49" cy="-396" rx="28.7" ry="18"/>
<text text-anchor="middle" x="275.49" y="-392.3" font-family="Times,serif" font-size="14.00">not 2</text>
</g>
<!-- day 1&#45;&gt;not 2 -->
<g id="edge10" class="edge">
<title>day 1&#45;&gt;not 2</title>
<path fill="none" stroke="black" d="M173.34,-396C192.08,-396 216.48,-396 236.61,-396"/>
<polygon fill="black" stroke="black" points="236.7,-399.5 246.7,-396 236.7,-392.5 236.7,-399.5"/>
</g>
<!-- 44 -->
<g id="node19" class="node">
<title>44</title>
<ellipse fill="none" stroke="black" cx="27" cy="-450" rx="27" ry="18"/>
<text text-anchor="middle" x="27" y="-446.3" font-family="Times,serif" font-size="14.00">44</text>
</g>
<!-- NULL44 -->
<g id="node20" class="node">
<title>NULL44</title>
<ellipse fill="none" stroke="black" cx="142.65" cy="-450" rx="42.79" ry="18"/>
<text text-anchor="middle" x="142.65" y="-446.3" font-family="Times,serif" font-size="14.00">NULL44</text>
</g>
<!-- 44&#45;&gt;NULL44 -->
<g id="edge11" class="edge">
<title>44&#45;&gt;NULL44</title>
<path fill="none" stroke="black" d="M54.07,-450C64.62,-450 77.19,-450 89.47,-450"/>
<polygon fill="black" stroke="black" points="89.66,-453.5 99.66,-450 89.66,-446.5 89.66,-453.5"/>
</g>
<!-- 43 -->
<g id="node21" class="node">
<title>43</title>
<ellipse fill="none" stroke="black" cx="27" cy="-504" rx="27" ry="18"/>
<text text-anchor="middle" x="27" y="-500.3" font-family="Times,serif" font-size="14.00">43</text>
</g>
<!-- NULL43 -->
<g id="node22" class="node">
<title>NULL43</title>
<ellipse fill="none" stroke="black" cx="142.65" cy="-504" rx="42.79" ry="18"/>
<text text-anchor="middle" x="142.65" y="-500.3" font-family="Times,serif" font-size="14.00">NULL43</text>
</g>
<!-- 43&#45;&gt;NULL43 -->
<g id="edge12" class="edge">
<title>43&#45;&gt;NULL43</title>
<path fill="none" stroke="black" d="M54.07,-504C64.62,-504 77.19,-504 89.47,-504"/>
<polygon fill="black" stroke="black" points="89.66,-507.5 99.66,-504 89.66,-500.5 89.66,-507.5"/>
</g>
<!-- 42 -->
<g id="node23" class="node">
<title>42</title>
<ellipse fill="none" stroke="black" cx="27" cy="-558" rx="27" ry="18"/>
<text text-anchor="middle" x="27" y="-554.3" font-family="Times,serif" font-size="14.00">42</text>
</g>
<!-- NULL42 -->
<g id="node24" class="node">
<title>NULL42</title>
<ellipse fill="none" stroke="black" cx="142.65" cy="-558" rx="42.79" ry="18"/>
<text text-anchor="middle" x="142.65" y="-554.3" font-family="Times,serif" font-size="14.00">NULL42</text>
</g>
<!-- 42&#45;&gt;NULL42 -->
<g id="edge13" class="edge">
<title>42&#45;&gt;NULL42</title>
<path fill="none" stroke="black" d="M54.07,-558C64.62,-558 77.19,-558 89.47,-558"/>
<polygon fill="black" stroke="black" points="89.66,-561.5 99.66,-558 89.66,-554.5 89.66,-561.5"/>
</g>
<!-- 41 -->
<g id="node25" class="node">
<title>41</title>
<ellipse fill="none" stroke="black" cx="27" cy="-612" rx="27" ry="18"/>
<text text-anchor="middle" x="27" y="-608.3" font-family="Times,serif" font-size="14.00">41</text>
</g>
<!-- do 1 -->
<g id="node26" class="node">
<title>do 1</title>
<ellipse fill="none" stroke="black" cx="142.65" cy="-612" rx="27" ry="18"/>
<text text-anchor="middle" x="142.65" y="-608.3" font-family="Times,serif" font-size="14.00">do 1</text>
</g>
<!-- 41&#45;&gt;do 1 -->
<g id="edge14" class="edge">
<title>41&#45;&gt;do 1</title>
<path fill="none" stroke="black" d="M54.07,-612C69.12,-612 88.3,-612 104.86,-612"/>
<polygon fill="black" stroke="black" points="105.3,-615.5 115.3,-612 105.3,-608.5 105.3,-615.5"/>
</g>
<!-- me 1 -->
<g id="node27" class="node">
<title>me 1</title>
<ellipse fill="none" stroke="black" cx="275.49" cy="-612" rx="28.7" ry="18"/>
<text text-anchor="middle" x="275.49" y="-608.3" font-family="Times,serif" font-size="14.00">me 1</text>
</g>
<!-- do 1&#45;&gt;me 1 -->
<g id="edge15" class="edge">
<title>do 1&#45;&gt;me 1</title>
<path fill="none" stroke="black" d="M169.81,-612C188.91,-612 215.09,-612 236.49,-612"/>
<polygon fill="black" stroke="black" points="236.56,-615.5 246.56,-612 236.56,-608.5 236.56,-615.5"/>
</g>
<!-- 40 -->
<g id="node28" class="node">
<title>40</title>
<ellipse fill="none" stroke="black" cx="27" cy="-666" rx="27" ry="18"/>
<text text-anchor="middle" x="27" y="-662.3" font-family="Times,serif" font-size="14.00">40</text>
</g>
<!-- a 1 -->
<g id="node29" class="node">
<title>a 1</title>
<ellipse fill="none" stroke="black" cx="142.65" cy="-666" rx="27" ry="18"/>
<text text-anchor="middle" x="142.65" y="-662.3" font-family="Times,serif" font-size="14.00">a 1</text>
</g>
<!-- 40&#45;&gt;a 1 -->
<g id="edge16" class="edge">
<title>40&#45;&gt;a 1</title>
<path fill="none" stroke="black" d="M54.07,-666C69.12,-666 88.3,-666 104.86,-666"/>
<polygon fill="black" stroke="black" points="105.3,-669.5 115.3,-666 105.3,-662.5 105.3,-669.5"/>
</g>
<!-- so 1 -->
<g id="node30" class="node">
<title>so 1</title>
<ellipse fill="none" stroke="black" cx="275.49" cy="-666" rx="27" ry="18"/>
<text text-anchor="middle" x="275.49" y="-662.3" font-family="Times,serif" font-size="14.00">so 1</text>
</g>
<!-- a 1&#45;&gt;so 1 -->
<g id="edge17" class="edge">
<title>a 1&#45;&gt;so 1</title>
<path fill="none" stroke="black" d="M169.81,-666C189.42,-666 216.5,-666 238.2,-666"/>
<polygon fill="black" stroke="black" points="238.37,-669.5 248.37,-666 238.37,-662.5 238.37,-669.5"/>
</g>
<!-- mother 1 -->
<g id="node31" class="node">
<title>mother 1</title>
<ellipse fill="none" stroke="black" cx="398.58" cy="-666" rx="42.79" ry="18"/>
<text text-anchor="middle" x="398.58" y="-662.3" font-family="Times,serif" font-size="14.00">mother 1</text>
</g>
<!-- so 1&#45;&gt;mother 1 -->
<g id="edge18" class="edge">
<title>so 1&#45;&gt;mother 1</title>
<path fill="none" stroke="black" d="M302.76,-666C315.31,-666 330.78,-666 345.56,-666"/>
<polygon fill="black" stroke="black" points="345.64,-669.5 355.64,-666 345.64,-662.5 345.64,-669.5"/>
</g>
<!-- 39 -->
<g id="node32" class="node">
<title>39</title>
<ellipse fill="none" stroke="black" cx="27" cy="-720" rx="27" ry="18"/>
<text text-anchor="middle" x="27" y="-716.3" font-family="Times,serif" font-size="14.00">39</text>
</g>
<!-- university 1 -->
<g id="node33" class="node">
<title>university 1</title>
<ellipse fill="none" stroke="black" cx="142.65" cy="-720" rx="52.79" ry="18"/>
<text text-anchor="middle" x="142.65" y="-716.3" font-family="Times,serif" font-size="14.00">university 1</text>
</g>
<!-- 39&#45;&gt;university 1 -->
<g id="edge19" class="edge">
<title>39&#45;&gt;university 1</title>
<path fill="none" stroke="black" d="M54.07,-720C61.79,-720 70.58,-720 79.55,-720"/>
<polygon fill="black" stroke="black" points="79.71,-723.5 89.71,-720 79.71,-716.5 79.71,-723.5"/>
</g>
<!-- much 1 -->
<g id="node34" class="node">
<title>much 1</title>
<ellipse fill="none" stroke="black" cx="275.49" cy="-720" rx="37.89" ry="18"/>
<text text-anchor="middle" x="275.49" y="-716.3" font-family="Times,serif" font-size="14.00">much 1</text>
</g>
<!-- university 1&#45;&gt;much 1 -->
<g id="edge20" class="edge">
<title>university 1&#45;&gt;much 1</title>
<path fill="none" stroke="black" d="M195.36,-720C205.96,-720 217.08,-720 227.51,-720"/>
<polygon fill="black" stroke="black" points="227.66,-723.5 237.66,-720 227.66,-716.5 227.66,-723.5"/>
</g>
<!-- 38 -->
<g id="node35" class="node">
<title>38</title>
<ellipse fill="none" stroke="black" cx="27" cy="-774" rx="27" ry="18"/>
<text text-anchor="middle" x="27" y="-770.3" font-family="Times,serif" font-size="14.00">38</text>
</g>
<!-- NULL38 -->
<g id="node36" class="node">
<title>NULL38</title>
<ellipse fill="none" stroke="black" cx="142.65" cy="-774" rx="42.79" ry="18"/>
<text text-anchor="middle" x="142.65" y="-770.3" font-family="Times,serif" font-size="14.00">NULL38</text>
</g>
<!-- 38&#45;&gt;NULL38 -->
<g id="edge21" class="edge">
<title>38&#45;&gt;NULL38</title>
<path fill="none" stroke="black" d="M54.07,-774C64.62,-774 77.19,-774 89.47,-774"/>
<polygon fill="black" stroke="black" points="89.66,-777.5 99.66,-774 89.66,-770.5 89.66,-777.5"/>
</g>
<!-- 37 -->
<g id="node37" class="node">
<title>37</title>
<ellipse fill="none" stroke="black" cx="27" cy="-828" rx="27" ry="18"/>
<text text-anchor="middle" x="27" y="-824.3" font-family="Times,serif" font-size="14.00">37</text>
</g>
<!-- NULL37 -->
<g id="node38" class="node">
<title>NULL37</title>
<ellipse fill="none" stroke="black" cx="142.65" cy="-828" rx="42.79" ry="18"/>
<text text-anchor="middle" x="142.65" y="-824.3" font-family="Times,serif" font-size="14.00">NULL37</text>
</g>
<!-- 37&#45;&gt;NULL37 -->
<g id="edge22" class="edge">
<title>37&#45;&gt;NULL37</title>
<path fill="none" stroke="black" d="M54.07,-828C64.62,-828 77.19,-828 89.47,-828"/>
<polygon fill="black" stroke="black" points="89.66,-831.5 99.66,-828 89.66,-824.5 89.66,-831.5"/>
</g>
<!-- 36 -->
<g id="node39" class="node">
<title>36</title>
<ellipse fill="none" stroke="black" cx="27" cy="-882" rx="27" ry="18"/>
<text text-anchor="middle" x="27" y="-878.3" font-family="Times,serif" font-size="14.00">36</text>
</g>
<!-- student 2 -->
<g id="node40" class="node">
<title>student 2</title>
<ellipse fill="none" stroke="black" cx="142.65" cy="-882" rx="42.79" ry="18"/>
<text text-anchor="middle" x="142.65" y="-878.3" font-family="Times,serif" font-size="14.00">student 2</text>
</g>
<!-- 36&#45;&gt;student 2 -->
<g id="edge23" class="edge">
<title>36&#45;&gt;student 2</title>
<path fill="none" stroke="black" d="M54.07,-882C64.62,-882 77.19,-882 89.47,-882"/>
<polygon fill="black" stroke="black" points="89.66,-885.5 99.66,-882 89.66,-878.5 89.66,-885.5"/>
</g>
<!-- eat 1 -->
<g id="node41" class="node">
<title>eat 1</title>
<ellipse fill="none" stroke="black" cx="275.49" cy="-882" rx="27.9" ry="18"/>
<text text-anchor="middle" x="275.49" y="-878.3" font-family="Times,serif" font-size="14.00">eat 1</text>
</g>
<!-- student 2&#45;&gt;eat 1 -->
<g id="edge24" class="edge">
<title>student 2&#45;&gt;eat 1</title>
<path fill="none" stroke="black" d="M185.76,-882C202.31,-882 221.14,-882 237.19,-882"/>
<polygon fill="black" stroke="black" points="237.28,-885.5 247.28,-882 237.28,-878.5 237.28,-885.5"/>
</g>
<!-- 35 -->
<g id="node42" class="node">
<title>35</title>
<ellipse fill="none" stroke="black" cx="27" cy="-936" rx="27" ry="18"/>
<text text-anchor="middle" x="27" y="-932.3" font-family="Times,serif" font-size="14.00">35</text>
</g>
<!-- NULL35 -->
<g id="node43" class="node">
<title>NULL35</title>
<ellipse fill="none" stroke="black" cx="142.65" cy="-936" rx="42.79" ry="18"/>
<text text-anchor="middle" x="142.65" y="-932.3" font-family="Times,serif" font-size="14.00">NULL35</text>
</g>
<!-- 35&#45;&gt;NULL35 -->
<g id="edge25" class="edge">
<title>35&#45;&gt;NULL35</title>
<path fill="none" stroke="black" d="M54.07,-936C64.62,-936 77.19,-936 89.47,-936"/>
<polygon fill="black" stroke="black" points="89.66,-939.5 99.66,-936 89.66,-932.5 89.66,-939.5"/>
</g>
<!-- 34 -->
<g id="node44" class="node">
<title>34</title>
<ellipse fill="none" stroke="black" cx="27" cy="-990" rx="27" ry="18"/>
<text text-anchor="middle" x="27" y="-986.3" font-family="Times,serif" font-size="14.00">34</text>
</g>
<!-- NULL34 -->
<g id="node45" class="node">
<title>NULL34</title>
<ellipse fill="none" stroke="black" cx="142.65" cy="-990" rx="42.79" ry="18"/>
<text text-anchor="middle" x="142.65" y="-986.3" font-family="Times,serif" font-size="14.00">NULL34</text>
</g>
<!-- 34&#45;&gt;NULL34 -->
<g id="edge26" class="edge">
<title>34&#45;&gt;NULL34</title>
<path fill="none" stroke="black" d="M54.07,-990C64.62,-990 77.19,-990 89.47,-990"/>
<polygon fill="black" stroke="black" points="89.66,-993.5 99.66,-990 89.66,-986.5 89.66,-993.5"/>
</g>
<!-- 33 -->
<g id="node46" class="node">
<title>33</title>
<ellipse fill="none" stroke="black" cx="27" cy="-1044" rx="27" ry="18"/>
<text text-anchor="middle" x="27" y="-1040.3" font-family="Times,serif" font-size="14.00">33</text>
</g>
<!-- NULL33 -->
<g id="node47" class="node">
<title>NULL33</title>
<ellipse fill="none" stroke="black" cx="142.65" cy="-1044" rx="42.79" ry="18"/>
<text text-anchor="middle" x="142.65" y="-1040.3" font-family="Times,serif" font-size="14.00">NULL33</text>
</g>
<!-- 33&#45;&gt;NULL33 -->
<g id="edge27" class="edge">
<title>33&#45;&gt;NULL33</title>
<path fill="none" stroke="black" d="M54.07,-1044C64.62,-1044 77.19,-1044 89.47,-1044"/>
<polygon fill="black" stroke="black" points="89.66,-1047.5 99.66,-1044 89.66,-1040.5 89.66,-1047.5"/>
</g>
<!-- 32 -->
<g id="node48" class="node">
<title>32</title>
<ellipse fill="none" stroke="black" cx="27" cy="-1098" rx="27" ry="18"/>
<text text-anchor="middle" x="27" y="-1094.3" font-family="Times,serif" font-size="14.00">32</text>
</g>
<!-- NULL32 -->
<g id="node49" class="node">
<title>NULL32</title>
<ellipse fill="none" stroke="black" cx="142.65" cy="-1098" rx="42.79" ry="18"/>
<text text-anchor="middle" x="142.65" y="-1094.3" font-family="Times,serif" font-size="14.00">NULL32</text>
</g>
<!-- 32&#45;&gt;NULL32 -->
<g id="edge28" class="edge">
<title>32&#45;&gt;NULL32</title>
<path fill="none" stroke="black" d="M54.07,-1098C64.62,-1098 77.19,-1098 89.47,-1098"/>
<polygon fill="black" stroke="black" points="89.66,-1101.5 99.66,-1098 89.66,-1094.5 89.66,-1101.5"/>
</g>
<!-- 31 -->
<g id="node50" class="node">
<title>31</title>
<ellipse fill="none" stroke="black" cx="27" cy="-1152" rx="27" ry="18"/>
<text text-anchor="middle" x="27" y="-1148.3" font-family="Times,serif" font-size="14.00">31</text>
</g>
<!-- NULL31 -->
<g id="node51" class="node">
<title>NULL31</title>
<ellipse fill="none" stroke="black" cx="142.65" cy="-1152" rx="42.79" ry="18"/>
<text text-anchor="middle" x="142.65" y="-1148.3" font-family="Times,serif" font-size="14.00">NULL31</text>
</g>
<!-- 31&#45;&gt;NULL31 -->
<g id="edge29" class="edge">
<title>31&#45;&gt;NULL31</title>
<path fill="none" stroke="black" d="M54.07,-1152C64.62,-1152 77.19,-1152 89.47,-1152"/>
<polygon fill="black" stroke="black" points="89.66,-1155.5 99.66,-1152 89.66,-1148.5 89.66,-1155.5"/>
</g>
<!-- 30 -->
<g id="node52" class="node">
<title>30</title>
<ellipse fill="none" stroke="black" cx="27" cy="-1206" rx="27" ry="18"/>
<text text-anchor="middle" x="27" y="-1202.3" font-family="Times,serif" font-size="14.00">30</text>
</g>
<!-- NULL30 -->
<g id="node53" class="node">
<title>NULL30</title>
<ellipse fill="none" stroke="black" cx="142.65" cy="-1206" rx="42.79" ry="18"/>
<text text-anchor="middle" x="142.65" y="-1202.3" font-family="Times,serif" font-size="14.00">NULL30</text>
</g>
<!-- 30&#45;&gt;NULL30 -->
<g id="edge30" class="edge">
<title>30&#45;&gt;NULL30</title>
<path fill="none" stroke="black" d="M54.07,-1206C64.62,-1206 77.19,-1206 89.47,-1206"/>
<polygon fill="black" stroke="black" points="89.66,-1209.5 99.66,-1206 89.66,-1202.5 89.66,-1209.5"/>
</g>
<!-- 29 -->
<g id="node54" class="node">
<title>29</title>
<ellipse fill="none" stroke="black" cx="27" cy="-1260" rx="27" ry="18"/>
<text text-anchor="middle" x="27" y="-1256.3" font-family="Times,serif" font-size="14.00">29</text>
</g>
<!-- NULL29 -->
<g id="node55" class="node">
<title>NULL29</title>
<ellipse fill="none" stroke="black" cx="142.65" cy="-1260" rx="42.79" ry="18"/>
<text text-anchor="middle" x="142.65" y="-1256.3" font-family="Times,serif" font-size="14.00">NULL29</text>
</g>
<!-- 29&#45;&gt;NULL29 -->
<g id="edge31" class="edge">
<title>29&#45;&gt;NULL29</title>
<path fill="none" stroke="black" d="M54.07,-1260C64.62,-1260 77.19,-1260 89.47,-1260"/>
<polygon fill="black" stroke="black" points="89.66,-1263.5 99.66,-1260 89.66,-1256.5 89.66,-1263.5"/>
</g>
<!-- 28 -->
<g id="node56" class="node">
<title>28</title>
<ellipse fill="none" stroke="black" cx="27" cy="-1314" rx="27" ry="18"/>
<text text-anchor="middle" x="27" y="-1310.3" font-family="Times,serif" font-size="14.00">28</text>
</g>
<!-- NULL28 -->
<g id="node57" class="node">
<title>NULL28</title>
<ellipse fill="none" stroke="black" cx="142.65" cy="-1314" rx="42.79" ry="18"/>
<text text-anchor="middle" x="142.65" y="-1310.3" font-family="Times,serif" font-size="14.00">NULL28</text>
</g>
<!-- 28&#45;&gt;NULL28 -->
<g id="edge32" class="edge">
<title>28&#45;&gt;NULL28</title>
<path fill="none" stroke="black" d="M54.07,-1314C64.62,-1314 77.19,-1314 89.47,-1314"/>
<polygon fill="black" stroke="black" points="89.66,-1317.5 99.66,-1314 89.66,-1310.5 89.66,-1317.5"/>
</g>
<!-- 27 -->
<g id="node58" class="node">
<title>27</title>
<ellipse fill="none" stroke="black" cx="27" cy="-1368" rx="27" ry="18"/>
<text text-anchor="middle" x="27" y="-1364.3" font-family="Times,serif" font-size="14.00">27</text>
</g>
<!-- is 2 -->
<g id="node59" class="node">
<title>is 2</title>
<ellipse fill="none" stroke="black" cx="142.65" cy="-1368" rx="27" ry="18"/>
<text text-anchor="middle" x="142.65" y="-1364.3" font-family="Times,serif" font-size="14.00">is 2</text>
</g>
<!-- 27&#45;&gt;is 2 -->
<g id="edge33" class="edge">
<title>27&#45;&gt;is 2</title>
<path fill="none" stroke="black" d="M54.07,-1368C69.12,-1368 88.3,-1368 104.86,-1368"/>
<polygon fill="black" stroke="black" points="105.3,-1371.5 115.3,-1368 105.3,-1364.5 105.3,-1371.5"/>
</g>
<!-- three 1 -->
<g id="node60" class="node">
<title>three 1</title>
<ellipse fill="none" stroke="black" cx="275.49" cy="-1368" rx="35.19" ry="18"/>
<text text-anchor="middle" x="275.49" y="-1364.3" font-family="Times,serif" font-size="14.00">three 1</text>
</g>
<!-- is 2&#45;&gt;three 1 -->
<g id="edge34" class="edge">
<title>is 2&#45;&gt;three 1</title>
<path fill="none" stroke="black" d="M169.81,-1368C186.96,-1368 209.81,-1368 229.79,-1368"/>
<polygon fill="black" stroke="black" points="229.93,-1371.5 239.93,-1368 229.93,-1364.5 229.93,-1371.5"/>
</g>
<!-- 26 -->
<g id="node61" class="node">
<title>26</title>
<ellipse fill="none" stroke="black" cx="27" cy="-1422" rx="27" ry="18"/>
<text text-anchor="middle" x="27" y="-1418.3" font-family="Times,serif" font-size="14.00">26</text>
</g>
<!-- NULL26 -->
<g id="node62" class="node">
<title>NULL26</title>
<ellipse fill="none" stroke="black" cx="142.65" cy="-1422" rx="42.79" ry="18"/>
<text text-anchor="middle" x="142.65" y="-1418.3" font-family="Times,serif" font-size="14.00">NULL26</text>
</g>
<!-- 26&#45;&gt;NULL26 -->
<g id="edge35" class="edge">
<title>26&#45;&gt;NULL26</title>
<path fill="none" stroke="black" d="M54.07,-1422C64.62,-1422 77.19,-1422 89.47,-1422"/>
<polygon fill="black" stroke="black" points="89.66,-1425.5 99.66,-1422 89.66,-1418.5 89.66,-1425.5"/>
</g>
<!-- 25 -->
<g id="node63" class="node">
<title>25</title>
<ellipse fill="none" stroke="black" cx="27" cy="-1476" rx="27" ry="18"/>
<text text-anchor="middle" x="27" y="-1472.3" font-family="Times,serif" font-size="14.00">25</text>
</g>
<!-- NULL25 -->
<g id="node64" class="node">
<title>NULL25</title>
<ellipse fill="none" stroke="black" cx="142.65" cy="-1476" rx="42.79" ry="18"/>
<text text-anchor="middle" x="142.65" y="-1472.3" font-family="Times,serif" font-size="14.00">NULL25</text>
</g>
<!-- 25&#45;&gt;NULL25 -->
<g id="edge36" class="edge">
<title>25&#45;&gt;NULL25</title>
<path fill="none" stroke="black" d="M54.07,-1476C64.62,-1476 77.19,-1476 89.47,-1476"/>
<polygon fill="black" stroke="black" points="89.66,-1479.5 99.66,-1476 89.66,-1472.5 89.66,-1479.5"/>
</g>
<!-- 24 -->
<g id="node65" class="node">
<title>24</title>
<ellipse fill="none" stroke="black" cx="27" cy="-1530" rx="27" ry="18"/>
<text text-anchor="middle" x="27" y="-1526.3" font-family="Times,serif" font-size="14.00">24</text>
</g>
<!-- four 1 -->
<g id="node66" class="node">
<title>four 1</title>
<ellipse fill="none" stroke="black" cx="142.65" cy="-1530" rx="32.49" ry="18"/>
<text text-anchor="middle" x="142.65" y="-1526.3" font-family="Times,serif" font-size="14.00">four 1</text>
</g>
<!-- 24&#45;&gt;four 1 -->
<g id="edge37" class="edge">
<title>24&#45;&gt;four 1</title>
<path fill="none" stroke="black" d="M54.07,-1530C67.6,-1530 84.45,-1530 99.74,-1530"/>
<polygon fill="black" stroke="black" points="100.03,-1533.5 110.03,-1530 100.03,-1526.5 100.03,-1533.5"/>
</g>
<!-- meals 1 -->
<g id="node67" class="node">
<title>meals 1</title>
<ellipse fill="none" stroke="black" cx="275.49" cy="-1530" rx="38.19" ry="18"/>
<text text-anchor="middle" x="275.49" y="-1526.3" font-family="Times,serif" font-size="14.00">meals 1</text>
</g>
<!-- four 1&#45;&gt;meals 1 -->
<g id="edge38" class="edge">
<title>four 1&#45;&gt;meals 1</title>
<path fill="none" stroke="black" d="M175.32,-1530C190.73,-1530 209.57,-1530 226.68,-1530"/>
<polygon fill="black" stroke="black" points="227.06,-1533.5 237.06,-1530 227.06,-1526.5 227.06,-1533.5"/>
</g>
<!-- 23 -->
<g id="node68" class="node">
<title>23</title>
<ellipse fill="none" stroke="black" cx="27" cy="-1584" rx="27" ry="18"/>
<text text-anchor="middle" x="27" y="-1580.3" font-family="Times,serif" font-size="14.00">23</text>
</g>
<!-- NULL23 -->
<g id="node69" class="node">
<title>NULL23</title>
<ellipse fill="none" stroke="black" cx="142.65" cy="-1584" rx="42.79" ry="18"/>
<text text-anchor="middle" x="142.65" y="-1580.3" font-family="Times,serif" font-size="14.00">NULL23</text>
</g>
<!-- 23&#45;&gt;NULL23 -->
<g id="edge39" class="edge">
<title>23&#45;&gt;NULL23</title>
<path fill="none" stroke="black" d="M54.07,-1584C64.62,-1584 77.19,-1584 89.47,-1584"/>
<polygon fill="black" stroke="black" points="89.66,-1587.5 99.66,-1584 89.66,-1580.5 89.66,-1587.5"/>
</g>
<!-- 22 -->
<g id="node70" class="node">
<title>22</title>
<ellipse fill="none" stroke="black" cx="27" cy="-1638" rx="27" ry="18"/>
<text text-anchor="middle" x="27" y="-1634.3" font-family="Times,serif" font-size="14.00">22</text>
</g>
<!-- for 2 -->
<g id="node71" class="node">
<title>for 2</title>
<ellipse fill="none" stroke="black" cx="142.65" cy="-1638" rx="27.9" ry="18"/>
<text text-anchor="middle" x="142.65" y="-1634.3" font-family="Times,serif" font-size="14.00">for 2</text>
</g>
<!-- 22&#45;&gt;for 2 -->
<g id="edge40" class="edge">
<title>22&#45;&gt;for 2</title>
<path fill="none" stroke="black" d="M54.07,-1638C68.91,-1638 87.75,-1638 104.15,-1638"/>
<polygon fill="black" stroke="black" points="104.51,-1641.5 114.51,-1638 104.51,-1634.5 104.51,-1641.5"/>
</g>
<!-- 21 -->
<g id="node72" class="node">
<title>21</title>
<ellipse fill="none" stroke="black" cx="27" cy="-1692" rx="27" ry="18"/>
<text text-anchor="middle" x="27" y="-1688.3" font-family="Times,serif" font-size="14.00">21</text>
</g>
<!-- what 1 -->
<g id="node73" class="node">
<title>what 1</title>
<ellipse fill="none" stroke="black" cx="142.65" cy="-1692" rx="34.39" ry="18"/>
<text text-anchor="middle" x="142.65" y="-1688.3" font-family="Times,serif" font-size="14.00">what 1</text>
</g>
<!-- 21&#45;&gt;what 1 -->
<g id="edge41" class="edge">
<title>21&#45;&gt;what 1</title>
<path fill="none" stroke="black" d="M54.07,-1692C66.94,-1692 82.82,-1692 97.5,-1692"/>
<polygon fill="black" stroke="black" points="97.93,-1695.5 107.93,-1692 97.93,-1688.5 97.93,-1695.5"/>
</g>
<!-- 20 -->
<g id="node74" class="node">
<title>20</title>
<ellipse fill="none" stroke="black" cx="27" cy="-1746" rx="27" ry="18"/>
<text text-anchor="middle" x="27" y="-1742.3" font-family="Times,serif" font-size="14.00">20</text>
</g>
<!-- hobby 1 -->
<g id="node75" class="node">
<title>hobby 1</title>
<ellipse fill="none" stroke="black" cx="142.65" cy="-1746" rx="39.79" ry="18"/>
<text text-anchor="middle" x="142.65" y="-1742.3" font-family="Times,serif" font-size="14.00">hobby 1</text>
</g>
<!-- 20&#45;&gt;hobby 1 -->
<g id="edge42" class="edge">
<title>20&#45;&gt;hobby 1</title>
<path fill="none" stroke="black" d="M54.07,-1746C65.56,-1746 79.45,-1746 92.75,-1746"/>
<polygon fill="black" stroke="black" points="92.75,-1749.5 102.75,-1746 92.75,-1742.5 92.75,-1749.5"/>
</g>
<!-- 19 -->
<g id="node76" class="node">
<title>19</title>
<ellipse fill="none" stroke="black" cx="27" cy="-1800" rx="27" ry="18"/>
<text text-anchor="middle" x="27" y="-1796.3" font-family="Times,serif" font-size="14.00">19</text>
</g>
<!-- NULL19 -->
<g id="node77" class="node">
<title>NULL19</title>
<ellipse fill="none" stroke="black" cx="142.65" cy="-1800" rx="42.79" ry="18"/>
<text text-anchor="middle" x="142.65" y="-1796.3" font-family="Times,serif" font-size="14.00">NULL19</text>
</g>
<!-- 19&#45;&gt;NULL19 -->
<g id="edge43" class="edge">
<title>19&#45;&gt;NULL19</title>
<path fill="none" stroke="black" d="M54.07,-1800C64.62,-1800 77.19,-1800 89.47,-1800"/>
<polygon fill="black" stroke="black" points="89.66,-1803.5 99.66,-1800 89.66,-1796.5 89.66,-1803.5"/>
</g>
<!-- 18 -->
<g id="node78" class="node">
<title>18</title>
<ellipse fill="none" stroke="black" cx="27" cy="-1854" rx="27" ry="18"/>
<text text-anchor="middle" x="27" y="-1850.3" font-family="Times,serif" font-size="14.00">18</text>
</g>
<!-- am 1 -->
<g id="node79" class="node">
<title>am 1</title>
<ellipse fill="none" stroke="black" cx="142.65" cy="-1854" rx="28.7" ry="18"/>
<text text-anchor="middle" x="142.65" y="-1850.3" font-family="Times,serif" font-size="14.00">am 1</text>
</g>
<!-- 18&#45;&gt;am 1 -->
<g id="edge44" class="edge">
<title>18&#45;&gt;am 1</title>
<path fill="none" stroke="black" d="M54.07,-1854C68.69,-1854 87.2,-1854 103.43,-1854"/>
<polygon fill="black" stroke="black" points="103.71,-1857.5 113.71,-1854 103.71,-1850.5 103.71,-1857.5"/>
</g>
<!-- have 2 -->
<g id="node80" class="node">
<title>have 2</title>
<ellipse fill="none" stroke="black" cx="275.49" cy="-1854" rx="34.39" ry="18"/>
<text text-anchor="middle" x="275.49" y="-1850.3" font-family="Times,serif" font-size="14.00">have 2</text>
</g>
<!-- am 1&#45;&gt;have 2 -->
<g id="edge45" class="edge">
<title>am 1&#45;&gt;have 2</title>
<path fill="none" stroke="black" d="M171.39,-1854C188.56,-1854 210.98,-1854 230.53,-1854"/>
<polygon fill="black" stroke="black" points="230.74,-1857.5 240.74,-1854 230.74,-1850.5 230.74,-1857.5"/>
</g>
<!-- 17 -->
<g id="node81" class="node">
<title>17</title>
<ellipse fill="none" stroke="black" cx="27" cy="-1908" rx="27" ry="18"/>
<text text-anchor="middle" x="27" y="-1904.3" font-family="Times,serif" font-size="14.00">17</text>
</g>
<!-- NULL17 -->
<g id="node82" class="node">
<title>NULL17</title>
<ellipse fill="none" stroke="black" cx="142.65" cy="-1908" rx="42.79" ry="18"/>
<text text-anchor="middle" x="142.65" y="-1904.3" font-family="Times,serif" font-size="14.00">NULL17</text>
</g>
<!-- 17&#45;&gt;NULL17 -->
<g id="edge46" class="edge">
<title>17&#45;&gt;NULL17</title>
<path fill="none" stroke="black" d="M54.07,-1908C64.62,-1908 77.19,-1908 89.47,-1908"/>
<polygon fill="black" stroke="black" points="89.66,-1911.5 99.66,-1908 89.66,-1904.5 89.66,-1911.5"/>
</g>
<!-- 16 -->
<g id="node83" class="node">
<title>16</title>
<ellipse fill="none" stroke="black" cx="27" cy="-1962" rx="27" ry="18"/>
<text text-anchor="middle" x="27" y="-1958.3" font-family="Times,serif" font-size="14.00">16</text>
</g>
<!-- I 4 -->
<g id="node84" class="node">
<title>I 4</title>
<ellipse fill="none" stroke="black" cx="142.65" cy="-1962" rx="27" ry="18"/>
<text text-anchor="middle" x="142.65" y="-1958.3" font-family="Times,serif" font-size="14.00">I 4</text>
</g>
<!-- 16&#45;&gt;I 4 -->
<g id="edge47" class="edge">
<title>16&#45;&gt;I 4</title>
<path fill="none" stroke="black" d="M54.07,-1962C69.12,-1962 88.3,-1962 104.86,-1962"/>
<polygon fill="black" stroke="black" points="105.3,-1965.5 115.3,-1962 105.3,-1958.5 105.3,-1965.5"/>
</g>
<!-- 15 -->
<g id="node85" class="node">
<title>15</title>
<ellipse fill="none" stroke="black" cx="27" cy="-2016" rx="27" ry="18"/>
<text text-anchor="middle" x="27" y="-2012.3" font-family="Times,serif" font-size="14.00">15</text>
</g>
<!-- or 2 -->
<g id="node86" class="node">
<title>or 2</title>
<ellipse fill="none" stroke="black" cx="142.65" cy="-2016" rx="27" ry="18"/>
<text text-anchor="middle" x="142.65" y="-2012.3" font-family="Times,serif" font-size="14.00">or 2</text>
</g>
<!-- 15&#45;&gt;or 2 -->
<g id="edge48" class="edge">
<title>15&#45;&gt;or 2</title>
<path fill="none" stroke="black" d="M54.07,-2016C69.12,-2016 88.3,-2016 104.86,-2016"/>
<polygon fill="black" stroke="black" points="105.3,-2019.5 115.3,-2016 105.3,-2012.5 105.3,-2019.5"/>
</g>
<!-- 14 -->
<g id="node87" class="node">
<title>14</title>
<ellipse fill="none" stroke="black" cx="27" cy="-2070" rx="27" ry="18"/>
<text text-anchor="middle" x="27" y="-2066.3" font-family="Times,serif" font-size="14.00">14</text>
</g>
<!-- NULL14 -->
<g id="node88" class="node">
<title>NULL14</title>
<ellipse fill="none" stroke="black" cx="142.65" cy="-2070" rx="42.79" ry="18"/>
<text text-anchor="middle" x="142.65" y="-2066.3" font-family="Times,serif" font-size="14.00">NULL14</text>
</g>
<!-- 14&#45;&gt;NULL14 -->
<g id="edge49" class="edge">
<title>14&#45;&gt;NULL14</title>
<path fill="none" stroke="black" d="M54.07,-2070C64.62,-2070 77.19,-2070 89.47,-2070"/>
<polygon fill="black" stroke="black" points="89.66,-2073.5 99.66,-2070 89.66,-2066.5 89.66,-2073.5"/>
</g>
<!-- 13 -->
<g id="node89" class="node">
<title>13</title>
<ellipse fill="none" stroke="black" cx="27" cy="-2124" rx="27" ry="18"/>
<text text-anchor="middle" x="27" y="-2120.3" font-family="Times,serif" font-size="14.00">13</text>
</g>
<!-- NULL13 -->
<g id="node90" class="node">
<title>NULL13</title>
<ellipse fill="none" stroke="black" cx="142.65" cy="-2124" rx="42.79" ry="18"/>
<text text-anchor="middle" x="142.65" y="-2120.3" font-family="Times,serif" font-size="14.00">NULL13</text>
</g>
<!-- 13&#45;&gt;NULL13 -->
<g id="edge50" class="edge">
<title>13&#45;&gt;NULL13</title>
<path fill="none" stroke="black" d="M54.07,-2124C64.62,-2124 77.19,-2124 89.47,-2124"/>
<polygon fill="black" stroke="black" points="89.66,-2127.5 99.66,-2124 89.66,-2120.5 89.66,-2127.5"/>
</g>
<!-- 12 -->
<g id="node91" class="node">
<title>12</title>
<ellipse fill="none" stroke="black" cx="27" cy="-2178" rx="27" ry="18"/>
<text text-anchor="middle" x="27" y="-2174.3" font-family="Times,serif" font-size="14.00">12</text>
</g>
<!-- NULL12 -->
<g id="node92" class="node">
<title>NULL12</title>
<ellipse fill="none" stroke="black" cx="142.65" cy="-2178" rx="42.79" ry="18"/>
<text text-anchor="middle" x="142.65" y="-2174.3" font-family="Times,serif" font-size="14.00">NULL12</text>
</g>
<!-- 12&#45;&gt;NULL12 -->
<g id="edge51" class="edge">
<title>12&#45;&gt;NULL12</title>
<path fill="none" stroke="black" d="M54.07,-2178C64.62,-2178 77.19,-2178 89.47,-2178"/>
<polygon fill="black" stroke="black" points="89.66,-2181.5 99.66,-2178 89.66,-2174.5 89.66,-2181.5"/>
</g>
<!-- 11 -->
<g id="node93" class="node">
<title>11</title>
<ellipse fill="none" stroke="black" cx="27" cy="-2232" rx="27" ry="18"/>
<text text-anchor="middle" x="27" y="-2228.3" font-family="Times,serif" font-size="14.00">11</text>
</g>
<!-- time 1 -->
<g id="node94" class="node">
<title>time 1</title>
<ellipse fill="none" stroke="black" cx="142.65" cy="-2232" rx="33.6" ry="18"/>
<text text-anchor="middle" x="142.65" y="-2228.3" font-family="Times,serif" font-size="14.00">time 1</text>
</g>
<!-- 11&#45;&gt;time 1 -->
<g id="edge52" class="edge">
<title>11&#45;&gt;time 1</title>
<path fill="none" stroke="black" d="M54.07,-2232C67.28,-2232 83.65,-2232 98.66,-2232"/>
<polygon fill="black" stroke="black" points="98.77,-2235.5 108.77,-2232 98.77,-2228.5 98.77,-2235.5"/>
</g>
<!-- 10 -->
<g id="node95" class="node">
<title>10</title>
<ellipse fill="none" stroke="black" cx="27" cy="-2286" rx="27" ry="18"/>
<text text-anchor="middle" x="27" y="-2282.3" font-family="Times,serif" font-size="14.00">10</text>
</g>
<!-- the 1 -->
<g id="node96" class="node">
<title>the 1</title>
<ellipse fill="none" stroke="black" cx="142.65" cy="-2286" rx="28.7" ry="18"/>
<text text-anchor="middle" x="142.65" y="-2282.3" font-family="Times,serif" font-size="14.00">the 1</text>
</g>
<!-- 10&#45;&gt;the 1 -->
<g id="edge53" class="edge">
<title>10&#45;&gt;the 1</title>
<path fill="none" stroke="black" d="M54.07,-2286C68.69,-2286 87.2,-2286 103.43,-2286"/>
<polygon fill="black" stroke="black" points="103.71,-2289.5 113.71,-2286 103.71,-2282.5 103.71,-2289.5"/>
</g>
<!-- 9 -->
<g id="node97" class="node">
<title>9</title>
<ellipse fill="none" stroke="black" cx="27" cy="-2340" rx="27" ry="18"/>
<text text-anchor="middle" x="27" y="-2336.3" font-family="Times,serif" font-size="14.00">9</text>
</g>
<!-- go 1 -->
<g id="node98" class="node">
<title>go 1</title>
<ellipse fill="none" stroke="black" cx="142.65" cy="-2340" rx="27" ry="18"/>
<text text-anchor="middle" x="142.65" y="-2336.3" font-family="Times,serif" font-size="14.00">go 1</text>
</g>
<!-- 9&#45;&gt;go 1 -->
<g id="edge54" class="edge">
<title>9&#45;&gt;go 1</title>
<path fill="none" stroke="black" d="M54.07,-2340C69.12,-2340 88.3,-2340 104.86,-2340"/>
<polygon fill="black" stroke="black" points="105.3,-2343.5 115.3,-2340 105.3,-2336.5 105.3,-2343.5"/>
</g>
<!-- 8 -->
<g id="node99" class="node">
<title>8</title>
<ellipse fill="none" stroke="black" cx="27" cy="-2394" rx="27" ry="18"/>
<text text-anchor="middle" x="27" y="-2390.3" font-family="Times,serif" font-size="14.00">8</text>
</g>
<!-- my 2 -->
<g id="node100" class="node">
<title>my 2</title>
<ellipse fill="none" stroke="black" cx="142.65" cy="-2394" rx="29.5" ry="18"/>
<text text-anchor="middle" x="142.65" y="-2390.3" font-family="Times,serif" font-size="14.00">my 2</text>
</g>
<!-- 8&#45;&gt;my 2 -->
<g id="edge55" class="edge">
<title>8&#45;&gt;my 2</title>
<path fill="none" stroke="black" d="M54.07,-2394C68.59,-2394 86.93,-2394 103.08,-2394"/>
<polygon fill="black" stroke="black" points="103.31,-2397.5 113.31,-2394 103.31,-2390.5 103.31,-2397.5"/>
</g>
<!-- 7 -->
<g id="node101" class="node">
<title>7</title>
<ellipse fill="none" stroke="black" cx="27" cy="-2448" rx="27" ry="18"/>
<text text-anchor="middle" x="27" y="-2444.3" font-family="Times,serif" font-size="14.00">7</text>
</g>
<!-- NULL7 -->
<g id="node102" class="node">
<title>NULL7</title>
<ellipse fill="none" stroke="black" cx="142.65" cy="-2448" rx="38.19" ry="18"/>
<text text-anchor="middle" x="142.65" y="-2444.3" font-family="Times,serif" font-size="14.00">NULL7</text>
</g>
<!-- 7&#45;&gt;NULL7 -->
<g id="edge56" class="edge">
<title>7&#45;&gt;NULL7</title>
<path fill="none" stroke="black" d="M54.07,-2448C65.87,-2448 80.21,-2448 93.83,-2448"/>
<polygon fill="black" stroke="black" points="94.06,-2451.5 104.06,-2448 94.06,-2444.5 94.06,-2451.5"/>
</g>
<!-- 6 -->
<g id="node103" class="node">
<title>6</title>
<ellipse fill="none" stroke="black" cx="27" cy="-2502" rx="27" ry="18"/>
<text text-anchor="middle" x="27" y="-2498.3" font-family="Times,serif" font-size="14.00">6</text>
</g>
<!-- NULL6 -->
<g id="node104" class="node">
<title>NULL6</title>
<ellipse fill="none" stroke="black" cx="142.65" cy="-2502" rx="38.19" ry="18"/>
<text text-anchor="middle" x="142.65" y="-2498.3" font-family="Times,serif" font-size="14.00">NULL6</text>
</g>
<!-- 6&#45;&gt;NULL6 -->
<g id="edge57" class="edge">
<title>6&#45;&gt;NULL6</title>
<path fill="none" stroke="black" d="M54.07,-2502C65.87,-2502 80.21,-2502 93.83,-2502"/>
<polygon fill="black" stroke="black" points="94.06,-2505.5 104.06,-2502 94.06,-2498.5 94.06,-2505.5"/>
</g>
<!-- 5 -->
<g id="node105" class="node">
<title>5</title>
<ellipse fill="none" stroke="black" cx="27" cy="-2556" rx="27" ry="18"/>
<text text-anchor="middle" x="27" y="-2552.3" font-family="Times,serif" font-size="14.00">5</text>
</g>
<!-- NULL5 -->
<g id="node106" class="node">
<title>NULL5</title>
<ellipse fill="none" stroke="black" cx="142.65" cy="-2556" rx="38.19" ry="18"/>
<text text-anchor="middle" x="142.65" y="-2552.3" font-family="Times,serif" font-size="14.00">NULL5</text>
</g>
<!-- 5&#45;&gt;NULL5 -->
<g id="edge58" class="edge">
<title>5&#45;&gt;NULL5</title>
<path fill="none" stroke="black" d="M54.07,-2556C65.87,-2556 80.21,-2556 93.83,-2556"/>
<polygon fill="black" stroke="black" points="94.06,-2559.5 104.06,-2556 94.06,-2552.5 94.06,-2559.5"/>
</g>
<!-- 4 -->
<g id="node107" class="node">
<title>4</title>
<ellipse fill="none" stroke="black" cx="27" cy="-2610" rx="27" ry="18"/>
<text text-anchor="middle" x="27" y="-2606.3" font-family="Times,serif" font-size="14.00">4</text>
</g>
<!-- NULL4 -->
<g id="node108" class="node">
<title>NULL4</title>
<ellipse fill="none" stroke="black" cx="142.65" cy="-2610" rx="38.19" ry="18"/>
<text text-anchor="middle" x="142.65" y="-2606.3" font-family="Times,serif" font-size="14.00">NULL4</text>
</g>
<!-- 4&#45;&gt;NULL4 -->
<g id="edge59" class="edge">
<title>4&#45;&gt;NULL4</title>
<path fill="none" stroke="black" d="M54.07,-2610C65.87,-2610 80.21,-2610 93.83,-2610"/>
<polygon fill="black" stroke="black" points="94.06,-2613.5 104.06,-2610 94.06,-2606.5 94.06,-2613.5"/>
</g>
<!-- 3 -->
<g id="node109" class="node">
<title>3</title>
<ellipse fill="none" stroke="black" cx="27" cy="-2664" rx="27" ry="18"/>
<text text-anchor="middle" x="27" y="-2660.3" font-family="Times,serif" font-size="14.00">3</text>
</g>
<!-- Sergey 1 -->
<g id="node110" class="node">
<title>Sergey 1</title>
<ellipse fill="none" stroke="black" cx="142.65" cy="-2664" rx="42.49" ry="18"/>
<text text-anchor="middle" x="142.65" y="-2660.3" font-family="Times,serif" font-size="14.00">Sergey 1</text>
</g>
<!-- 3&#45;&gt;Sergey 1 -->
<g id="edge60" class="edge">
<title>3&#45;&gt;Sergey 1</title>
<path fill="none" stroke="black" d="M54.07,-2664C64.72,-2664 77.43,-2664 89.82,-2664"/>
<polygon fill="black" stroke="black" points="90.1,-2667.5 100.1,-2664 90.1,-2660.5 90.1,-2667.5"/>
</g>
<!-- 2 -->
<g id="node111" class="node">
<title>2</title>
<ellipse fill="none" stroke="black" cx="27" cy="-2718" rx="27" ry="18"/>
<text text-anchor="middle" x="27" y="-2714.3" font-family="Times,serif" font-size="14.00">2</text>
</g>
<!-- usually 2 -->
<g id="node112" class="node">
<title>usually 2</title>
<ellipse fill="none" stroke="black" cx="142.65" cy="-2718" rx="42.79" ry="18"/>
<text text-anchor="middle" x="142.65" y="-2714.3" font-family="Times,serif" font-size="14.00">usually 2</text>
</g>
<!-- 2&#45;&gt;usually 2 -->
<g id="edge61" class="edge">
<title>2&#45;&gt;usually 2</title>
<path fill="none" stroke="black" d="M54.07,-2718C64.62,-2718 77.19,-2718 89.47,-2718"/>
<polygon fill="black" stroke="black" points="89.66,-2721.5 99.66,-2718 89.66,-2714.5 89.66,-2721.5"/>
</g>
<!-- 1 -->
<g id="node113" class="node">
<title>1</title>
<ellipse fill="none" stroke="black" cx="27" cy="-2772" rx="27" ry="18"/>
<text text-anchor="middle" x="27" y="-2768.3" font-family="Times,serif" font-size="14.00">1</text>
</g>
<!-- Cooking 1 -->
<g id="node114" class="node">
<title>Cooking 1</title>
<ellipse fill="none" stroke="black" cx="142.65" cy="-2772" rx="48.19" ry="18"/>
<text text-anchor="middle" x="142.65" y="-2768.3" font-family="Times,serif" font-size="14.00">Cooking 1</text>
</g>
<!-- 1&#45;&gt;Cooking 1 -->
<g id="edge62" class="edge">
<title>1&#45;&gt;Cooking 1</title>
<path fill="none" stroke="black" d="M54.07,-2772C63.11,-2772 73.63,-2772 84.19,-2772"/>
<polygon fill="black" stroke="black" points="84.27,-2775.5 94.27,-2772 84.27,-2768.5 84.27,-2775.5"/>
</g>
<!-- 0 -->
<g id="node115" class="node">
<title>0</title>
<ellipse fill="none" stroke="black" cx="27" cy="-2826" rx="27" ry="18"/>
<text text-anchor="middle" x="27" y="-2822.3" font-family="Times,serif" font-size="14.00">0</text>
</g>
<!-- Every 1 -->
<g id="node116" class="node">
<title>Every 1</title>
<ellipse fill="none" stroke="black" cx="142.65" cy="-2826" rx="38.19" ry="18"/>
<text text-anchor="middle" x="142.65" y="-2822.3" font-family="Times,serif" font-size="14.00">Every 1</text>
</g>
<!-- 0&#45;&gt;Every 1 -->
<g id="edge63" class="edge">
<title>0&#45;&gt;Every 1</title>
<path fill="none" stroke="black" d="M54.07,-2826C65.87,-2826 80.21,-2826 93.83,-2826"/>
<polygon fill="black" stroke="black" points="94.06,-2829.5 104.06,-2826 94.06,-2822.5 94.06,-2829.5"/>
</g>
</g>
</svg>
