<?xml version="1.0" encoding="UTF-8" standalone="no"?>
<!DOCTYPE svg PUBLIC "-//W3C//DTD SVG 1.1//EN"
 "http://www.w3.org/Graphics/SVG/1.1/DTD/svg11.dtd">
<!-- Generated by graphviz version 2.43.0 (0)
 -->
<!-- Title: %3 Pages: 1 -->
<svg width="556pt" height="566pt"
 viewBox="0.00 0.00 556.00 566.00" xmlns="http://www.w3.org/2000/svg" xmlns:xlink="http://www.w3.org/1999/xlink">
<g id="graph0" class="graph" transform="scale(1 1) rotate(0) translate(4 562)">
<title>%3</title>
<polygon fill="white" stroke="transparent" points="-4,4 -4,-562 552,-562 552,4 -4,4"/>
<!-- 1 -->
<g id="node1" class="node">
<title>1</title>
<ellipse fill="none" stroke="black" cx="248" cy="-540" rx="27" ry="18"/>
<text text-anchor="middle" x="248" y="-536.3" font-family="Times,serif" font-size="14.00">1</text>
</g>
<!-- 2 -->
<g id="node2" class="node">
<title>2</title>
<ellipse fill="none" stroke="black" cx="248" cy="-453" rx="27" ry="18"/>
<text text-anchor="middle" x="248" y="-449.3" font-family="Times,serif" font-size="14.00">2</text>
</g>
<!-- 1&#45;&#45;2 -->
<g id="edge1" class="edge">
<title>1&#45;&#45;2</title>
<path fill="none" stroke="black" d="M248,-521.8C248,-507.05 248,-485.92 248,-471.18"/>
<text text-anchor="middle" x="251.5" y="-492.8" font-family="Times,serif" font-size="14.00">2</text>
</g>
<!-- 3 -->
<g id="node3" class="node">
<title>3</title>
<ellipse fill="none" stroke="black" cx="286" cy="-366" rx="27" ry="18"/>
<text text-anchor="middle" x="286" y="-362.3" font-family="Times,serif" font-size="14.00">3</text>
</g>
<!-- 1&#45;&#45;3 -->
<g id="edge2" class="edge">
<title>1&#45;&#45;3</title>
<path fill="none" stroke="black" d="M258.72,-523.32C267.2,-510.02 278.49,-490.13 284,-471 292.55,-441.33 290.57,-404.89 288.31,-383.97"/>
<text text-anchor="middle" x="293.5" y="-449.3" font-family="Times,serif" font-size="14.00">7</text>
</g>
<!-- 4 -->
<g id="node4" class="node">
<title>4</title>
<ellipse fill="none" stroke="black" cx="231" cy="-279" rx="27" ry="18"/>
<text text-anchor="middle" x="231" y="-275.3" font-family="Times,serif" font-size="14.00">4</text>
</g>
<!-- 1&#45;&#45;4 -->
<g id="edge3" class="edge">
<title>1&#45;&#45;4</title>
<path fill="none" stroke="black" d="M236.9,-523.42C228.21,-510.18 216.8,-490.32 212,-471 196.38,-408.1 215.46,-330.52 225.53,-296.88"/>
<text text-anchor="middle" x="214" y="-405.8" font-family="Times,serif" font-size="14.00">14</text>
</g>
<!-- 5 -->
<g id="node5" class="node">
<title>5</title>
<ellipse fill="none" stroke="black" cx="103" cy="-192" rx="27" ry="18"/>
<text text-anchor="middle" x="103" y="-188.3" font-family="Times,serif" font-size="14.00">5</text>
</g>
<!-- 1&#45;&#45;5 -->
<g id="edge4" class="edge">
<title>1&#45;&#45;5</title>
<path fill="none" stroke="black" d="M232.64,-524.98C226.61,-518.94 219.96,-511.53 215,-504 160.29,-420.94 161.78,-391.24 130,-297 122,-273.28 120.25,-267.24 114,-243 111.2,-232.16 108.5,-219.87 106.47,-210.2"/>
<text text-anchor="middle" x="164" y="-362.3" font-family="Times,serif" font-size="14.00">10</text>
</g>
<!-- 6 -->
<g id="node6" class="node">
<title>6</title>
<ellipse fill="none" stroke="black" cx="136" cy="-105" rx="27" ry="18"/>
<text text-anchor="middle" x="136" y="-101.3" font-family="Times,serif" font-size="14.00">6</text>
</g>
<!-- 1&#45;&#45;6 -->
<g id="edge5" class="edge">
<title>1&#45;&#45;6</title>
<path fill="none" stroke="black" d="M221.46,-535.65C157.48,-526.84 0,-500.42 0,-454 0,-454 0,-454 0,-191 0,-151.31 40.25,-161.88 74,-141 87.66,-132.55 103.44,-123.65 115.66,-116.95"/>
<text text-anchor="middle" x="7" y="-318.8" font-family="Times,serif" font-size="14.00">12</text>
</g>
<!-- 7 -->
<g id="node7" class="node">
<title>7</title>
<ellipse fill="none" stroke="black" cx="327" cy="-105" rx="27" ry="18"/>
<text text-anchor="middle" x="327" y="-101.3" font-family="Times,serif" font-size="14.00">7</text>
</g>
<!-- 1&#45;&#45;7 -->
<g id="edge6" class="edge">
<title>1&#45;&#45;7</title>
<path fill="none" stroke="black" d="M274.14,-535.42C336.34,-526.16 488,-498.98 488,-454 488,-454 488,-454 488,-321.5 488,-279.18 489.73,-265.44 470,-228 444.66,-179.9 426.58,-174.8 384,-141 372.54,-131.9 358.55,-123.28 347.3,-116.87"/>
<text text-anchor="middle" x="491.5" y="-318.8" font-family="Times,serif" font-size="14.00">2</text>
</g>
<!-- 8 -->
<g id="node8" class="node">
<title>8</title>
<ellipse fill="none" stroke="black" cx="327" cy="-18" rx="27" ry="18"/>
<text text-anchor="middle" x="327" y="-14.3" font-family="Times,serif" font-size="14.00">8</text>
</g>
<!-- 1&#45;&#45;8 -->
<g id="edge7" class="edge">
<title>1&#45;&#45;8</title>
<path fill="none" stroke="black" d="M274.65,-536.81C345.65,-530.26 534,-507.81 534,-454 534,-454 534,-454 534,-104 534,-27.08 410.17,-18.3 354.06,-18.27"/>
<text text-anchor="middle" x="541" y="-275.3" font-family="Times,serif" font-size="14.00">16</text>
</g>
<!-- 2&#45;&#45;3 -->
<g id="edge8" class="edge">
<title>2&#45;&#45;3</title>
<path fill="none" stroke="black" d="M255.33,-435.61C262.06,-420.56 271.97,-398.37 278.7,-383.34"/>
<text text-anchor="middle" x="277" y="-405.8" font-family="Times,serif" font-size="14.00">10</text>
</g>
<!-- 2&#45;&#45;4 -->
<g id="edge9" class="edge">
<title>2&#45;&#45;4</title>
<path fill="none" stroke="black" d="M244.39,-435.04C241.62,-421.34 237.96,-401.51 236,-384 232.61,-353.64 231.51,-318.04 231.16,-297.35"/>
<text text-anchor="middle" x="243" y="-362.3" font-family="Times,serif" font-size="14.00">20</text>
</g>
<!-- 2&#45;&#45;5 -->
<g id="edge10" class="edge">
<title>2&#45;&#45;5</title>
<path fill="none" stroke="black" d="M237.11,-436.11C218.4,-408.48 179.39,-349.49 151,-297 134.73,-266.91 118.65,-230.31 109.86,-209.53"/>
<text text-anchor="middle" x="176" y="-318.8" font-family="Times,serif" font-size="14.00">17</text>
</g>
<!-- 2&#45;&#45;6 -->
<g id="edge11" class="edge">
<title>2&#45;&#45;6</title>
<path fill="none" stroke="black" d="M231.41,-438.42C192,-404.83 94.02,-313.02 67,-210 62.94,-194.52 60.88,-188.78 67,-174 76.98,-149.92 100.17,-130.07 116.91,-118.16"/>
<text text-anchor="middle" x="113" y="-275.3" font-family="Times,serif" font-size="14.00">10</text>
</g>
<!-- 2&#45;&#45;7 -->
<g id="edge12" class="edge">
<title>2&#45;&#45;7</title>
<path fill="none" stroke="black" d="M268.59,-441.06C311.8,-418.1 408,-367 408,-367 408,-367 408,-367 408,-234.5 408,-186.24 366.61,-141.31 343,-119.61"/>
<text text-anchor="middle" x="415" y="-275.3" font-family="Times,serif" font-size="14.00">12</text>
</g>
<!-- 2&#45;&#45;8 -->
<g id="edge13" class="edge">
<title>2&#45;&#45;8</title>
<path fill="none" stroke="black" d="M268.01,-440.55C271.92,-438.55 276.03,-436.6 280,-435 336.03,-412.41 367.63,-430.66 406,-384 421.9,-364.67 416.92,-354.51 422,-330 447.38,-207.52 437.42,-157.37 367,-54 361.18,-45.46 352.8,-37.69 345.21,-31.66"/>
<text text-anchor="middle" x="441" y="-231.8" font-family="Times,serif" font-size="14.00">16</text>
</g>
<!-- 3&#45;&#45;4 -->
<g id="edge14" class="edge">
<title>3&#45;&#45;4</title>
<path fill="none" stroke="black" d="M273.12,-350.12C268.14,-344.06 262.55,-336.88 258,-330 250.92,-319.31 244.07,-306.58 239.04,-296.64"/>
<text text-anchor="middle" x="265" y="-318.8" font-family="Times,serif" font-size="14.00">17</text>
</g>
<!-- 3&#45;&#45;5 -->
<g id="edge15" class="edge">
<title>3&#45;&#45;5</title>
<path fill="none" stroke="black" d="M266.19,-353.32C239.87,-337.6 195.05,-310.12 181,-297 179.01,-295.14 135.69,-236.97 114.48,-208.46"/>
<text text-anchor="middle" x="188" y="-275.3" font-family="Times,serif" font-size="14.00">18</text>
</g>
<!-- 3&#45;&#45;6 -->
<g id="edge16" class="edge">
<title>3&#45;&#45;6</title>
<path fill="none" stroke="black" d="M285.39,-347.67C284.08,-326.39 279.96,-289.59 267,-261 239.51,-200.35 181.21,-144.77 152.57,-119.83"/>
<text text-anchor="middle" x="261.5" y="-231.8" font-family="Times,serif" font-size="14.00">9</text>
</g>
<!-- 3&#45;&#45;7 -->
<g id="edge17" class="edge">
<title>3&#45;&#45;7</title>
<path fill="none" stroke="black" d="M293.6,-348.56C295.99,-342.8 298.41,-336.21 300,-330 319.3,-254.48 324.91,-161.01 326.45,-123.14"/>
<text text-anchor="middle" x="325" y="-231.8" font-family="Times,serif" font-size="14.00">18</text>
</g>
<!-- 3&#45;&#45;8 -->
<g id="edge18" class="edge">
<title>3&#45;&#45;8</title>
<path fill="none" stroke="black" d="M300.74,-350.75C306.2,-344.78 312.03,-337.5 316,-330 334.33,-295.42 341.44,-322.82 363,-123 364.72,-107.09 366.86,-102.53 363,-87 358.2,-67.68 346.79,-47.82 338.1,-34.58"/>
<text text-anchor="middle" x="359.5" y="-188.3" font-family="Times,serif" font-size="14.00">3</text>
</g>
<!-- 4&#45;&#45;5 -->
<g id="edge19" class="edge">
<title>4&#45;&#45;5</title>
<path fill="none" stroke="black" d="M212.39,-265.64C188.12,-249.52 145.91,-221.5 121.63,-205.37"/>
<text text-anchor="middle" x="178.5" y="-231.8" font-family="Times,serif" font-size="14.00">3</text>
</g>
<!-- 4&#45;&#45;6 -->
<g id="edge20" class="edge">
<title>4&#45;&#45;6</title>
<path fill="none" stroke="black" d="M218.05,-263.12C206.95,-249.84 191.04,-229.53 180,-210 163.71,-181.19 165.11,-171.39 152,-141 149.35,-134.86 146.33,-128.18 143.64,-122.32"/>
<text text-anchor="middle" x="187" y="-188.3" font-family="Times,serif" font-size="14.00">19</text>
</g>
<!-- 4&#45;&#45;7 -->
<g id="edge21" class="edge">
<title>4&#45;&#45;7</title>
<path fill="none" stroke="black" d="M240.03,-261.82C258.33,-229.04 299.59,-155.11 317.92,-122.26"/>
<text text-anchor="middle" x="292.5" y="-188.3" font-family="Times,serif" font-size="14.00">8</text>
</g>
<!-- 4&#45;&#45;8 -->
<g id="edge22" class="edge">
<title>4&#45;&#45;8</title>
<path fill="none" stroke="black" d="M235.21,-261.03C243.85,-227.23 264.95,-149.38 291,-87 298.67,-68.63 309.61,-48.61 317.41,-35.08"/>
<text text-anchor="middle" x="278" y="-144.8" font-family="Times,serif" font-size="14.00">17</text>
</g>
<!-- 5&#45;&#45;6 -->
<g id="edge23" class="edge">
<title>5&#45;&#45;6</title>
<path fill="none" stroke="black" d="M102.34,-173.75C102.53,-163.84 103.78,-151.34 108,-141 111.06,-133.51 116.25,-126.32 121.34,-120.44"/>
<text text-anchor="middle" x="111.5" y="-144.8" font-family="Times,serif" font-size="14.00">3</text>
</g>
<!-- 5&#45;&#45;7 -->
<g id="edge24" class="edge">
<title>5&#45;&#45;7</title>
<path fill="none" stroke="black" d="M123.28,-180.02C143.93,-169.13 177.07,-152.47 207,-141 239.02,-128.73 277.22,-118.27 301.78,-112.07"/>
<text text-anchor="middle" x="214" y="-144.8" font-family="Times,serif" font-size="14.00">11</text>
</g>
<!-- 5&#45;&#45;8 -->
<g id="edge25" class="edge">
<title>5&#45;&#45;8</title>
<path fill="none" stroke="black" d="M93.74,-174.91C82.47,-152.95 67.11,-113.3 86,-87 111.3,-51.78 243.53,-30.16 300.66,-22.33"/>
<text text-anchor="middle" x="93" y="-101.3" font-family="Times,serif" font-size="14.00">19</text>
</g>
<!-- 6&#45;&#45;8 -->
<g id="edge26" class="edge">
<title>6&#45;&#45;8</title>
<path fill="none" stroke="black" d="M153.44,-91.08C168.96,-80.05 192.61,-64.37 215,-54 243.65,-40.73 278.67,-30.7 301.84,-24.85"/>
<text text-anchor="middle" x="222" y="-57.8" font-family="Times,serif" font-size="14.00">18</text>
</g>
<!-- 7&#45;&#45;8 -->
<g id="edge27" class="edge">
<title>7&#45;&#45;8</title>
<path fill="none" stroke="black" d="M327,-86.8C327,-72.05 327,-50.92 327,-36.18"/>
<text text-anchor="middle" x="330.5" y="-57.8" font-family="Times,serif" font-size="14.00">1</text>
</g>
</g>
</svg>
